<svg id="Слой_1" data-name="Слой 1" xmlns="http://www.w3.org/2000/svg" xmlns:xlink="http://www.w3.org/1999/xlink" viewBox="0 0 134.28 144.93"><defs><style>.cls-1{fill:none;}.cls-2{clip-path:url(#clip-path);}.cls-3{fill:#ca2228;}.cls-4{fill:#ca2328;}.cls-5{fill:#ca2428;}.cls-6{fill:#ca2529;}.cls-7{fill:#cb2629;}.cls-8{fill:#cb2729;}.cls-9{fill:#cb2829;}.cls-10{fill:#cb2929;}.cls-11{fill:#cb2a29;}.cls-12{fill:#cb2b29;}.cls-13{fill:#cb2c29;}.cls-14{fill:#cb2d29;}.cls-15{fill:#cb2e29;}.cls-16{fill:#cc2e29;}.cls-17{fill:#cc2f29;}.cls-18{fill:#cc3029;}.cls-19{fill:#cc3129;}.cls-20{fill:#cc3229;}.cls-21{fill:#cc3329;}.cls-22{fill:#cc3429;}.cls-23{fill:#cc3529;}.cls-24{fill:#cc352a;}.cls-25{fill:#cd362a;}.cls-26{fill:#cd372a;}.cls-27{fill:#cd382a;}.cls-28{fill:#cd392a;}.cls-29{fill:#cd3a2a;}.cls-30{fill:#cd3b2a;}.cls-31{fill:#ce3c2a;}.cls-32{fill:#ce3d2b;}.cls-33{fill:#ce3e2b;}.cls-34{fill:#cf3f2b;}.cls-35{fill:#cf402b;}.cls-36{fill:#cf412b;}.cls-37{fill:#cf422b;}.cls-38{fill:#cf432b;}.cls-39{fill:#cf442b;}.cls-40{fill:#cf452b;}.cls-41{fill:#cf462b;}.cls-42{fill:#cf472b;}.cls-43{fill:#d0482b;}.cls-44{fill:#d0492b;}.cls-45{fill:#d04a2c;}.cls-46{fill:#d04b2c;}.cls-47{fill:#d04c2c;}.cls-48{fill:#d14d2c;}.cls-49{fill:#d14e2c;}.cls-50{fill:#d14f2c;}.cls-51{fill:#d2502c;}.cls-52{fill:#d2512c;}.cls-53{fill:#d2522c;}.cls-54{fill:#d2532c;}.cls-55{fill:#d2542c;}.cls-56{fill:#d2552c;}.cls-57{fill:#d2562c;}.cls-58{fill:#d2572d;}.cls-59{fill:#d2582d;}.cls-60{fill:#d3592d;}.cls-61{fill:#d45a2d;}.cls-62{fill:#d45c2d;}.cls-63{fill:#d45d2d;}.cls-64{fill:#d45e2e;}.cls-65{fill:#d45f2e;}.cls-66{fill:#d4602e;}.cls-67{fill:#d5612e;}.cls-68{fill:#d5622e;}.cls-69{fill:#d5642f;}.cls-70{fill:#d6652f;}.cls-71{fill:#d6662f;}.cls-72{fill:#d6672f;}.cls-73{fill:#d6682f;}.cls-74{fill:#d66a2f;}.cls-75{fill:#d76b2f;}.cls-76{fill:#d76c2f;}.cls-77{fill:#d76d30;}.cls-78{fill:#d86f30;}.cls-79{fill:#d87030;}.cls-80{fill:#d87130;}.cls-81{fill:#d97330;}.cls-82{fill:#d97430;}.cls-83{fill:#d97531;}.cls-84{fill:#d97631;}.cls-85{fill:#da7831;}.cls-86{fill:#da7931;}.cls-87{fill:#da7a31;}.cls-88{fill:#db7c31;}.cls-89{fill:#db7d31;}.cls-90{fill:#db7e32;}.cls-91{fill:#dc8032;}.cls-92{fill:#dc8232;}.cls-93{fill:#dc8332;}.cls-94{fill:#dd8432;}.cls-95{fill:#de8633;}.cls-96{fill:#de8734;}.cls-97{fill:#de8834;}.cls-98{fill:#de8a34;}.cls-99{fill:#de8b34;}.cls-100{fill:#e08d34;}.cls-101{fill:#e08e34;}.cls-102{fill:#e09035;}.cls-103{fill:#e09135;}.cls-104{fill:#e09235;}.cls-105{fill:#e19435;}.cls-106{fill:#e19535;}.cls-107{fill:#e29736;}.cls-108{fill:#e29836;}.cls-109{fill:#e39a36;}.cls-110{fill:#e39b36;}.cls-111{fill:#e39d37;}.cls-112{fill:#e39e37;}.cls-113{fill:#e4a037;}.cls-114{fill:#e5a137;}.cls-115{fill:#e5a337;}.cls-116{fill:#e5a338;}.cls-117{fill:#e6a538;}.cls-118{fill:#e6a738;}.cls-119{fill:#e7a838;}.cls-120{fill:#e7aa39;}.cls-121{fill:#e8ab39;}.cls-122{fill:#e8ad39;}.cls-123{fill:#e8ae39;}.cls-124{fill:#e9b13a;}.cls-125{fill:#eab33b;}.cls-126{fill:#eab43b;}.cls-127{fill:#eab63b;}.cls-128{fill:#ebb73b;}.cls-129{fill:#ebb93c;}.cls-130{fill:#ecbb3c;}.cls-131{fill:#edbc3c;}.cls-132{fill:#edbe3c;}.cls-133{fill:#edc03d;}.cls-134{fill:#eec13d;}.cls-135{fill:#eec33d;}.cls-136{fill:#efc53e;}.cls-137{fill:#f0c63e;}.cls-138{fill:#f0c83e;}.cls-139{opacity:0.5;}.cls-140{fill:#fff;}.cls-141{opacity:0.3;}.cls-142{fill:#342046;}.cls-143{fill:#f3d35e;}.cls-144{opacity:0.25;}.cls-145{opacity:0.35;}.cls-146{fill:#5fa7fb;}.cls-147{opacity:0.6;}.cls-148{fill:#b75758;}.cls-149{fill:#92d4ed;}.cls-150{opacity:0.2;}.cls-151{fill:#db7093;}.cls-152{opacity:0.7;}.cls-153{fill:#1b202c;}.cls-154{fill:#62a4ec;}.cls-155{fill:#d34a7c;}</style><clipPath id="clip-path" transform="translate(-28.72 -2.07)"><path id="SVGID" class="cls-1" d="M30,137.61c15.85-6.61,20.94,3.93,31-.26S68.5,122,68.5,122s-6.74-9.45-16.8-5.27S45.89,131,30,137.61Z"/></clipPath></defs><title>astronaut-rocket</title><g class="cls-2"><polygon class="cls-3" points="1.32 135.54 3.49 139.47 1.32 139.47 1.32 135.54"/><polygon class="cls-3" points="1.32 135.05 3.77 139.47 3.49 139.47 1.32 135.54 1.32 135.05"/><polygon class="cls-3" points="1.32 134.56 4.04 139.47 3.77 139.47 1.32 135.05 1.32 134.56"/><polygon class="cls-3" points="1.32 134.07 4.31 139.47 4.04 139.47 1.32 134.56 1.32 134.07"/><polygon class="cls-3" points="1.32 133.59 4.58 139.47 4.31 139.47 1.32 134.07 1.32 133.59"/><polygon class="cls-3" points="1.32 133.1 4.85 139.47 4.58 139.47 1.32 133.59 1.32 133.1"/><polygon class="cls-3" points="1.32 132.61 5.12 139.47 4.85 139.47 1.32 133.1 1.32 132.61"/><polygon class="cls-4" points="1.32 132.12 5.39 139.47 5.12 139.47 1.32 132.61 1.32 132.12"/><polygon class="cls-4" points="1.32 131.63 5.66 139.47 5.39 139.47 1.32 132.12 1.32 131.63"/><polygon class="cls-4" points="1.32 131.14 5.93 139.47 5.66 139.47 1.32 131.63 1.32 131.14"/><polygon class="cls-4" points="1.32 130.65 6.2 139.47 5.93 139.47 1.32 131.14 1.32 130.65"/><polygon class="cls-4" points="1.32 130.16 6.47 139.47 6.2 139.47 1.32 130.65 1.32 130.16"/><polygon class="cls-4" points="1.32 129.68 6.74 139.47 6.47 139.47 1.32 130.16 1.32 129.68"/><polygon class="cls-4" points="1.32 129.19 7.01 139.47 6.74 139.47 1.32 129.68 1.32 129.19"/><polygon class="cls-4" points="1.32 128.7 7.29 139.47 7.01 139.47 1.32 129.19 1.32 128.7"/><polygon class="cls-5" points="1.32 128.21 7.56 139.47 7.29 139.47 1.32 128.7 1.32 128.21"/><polygon class="cls-5" points="1.32 127.72 7.83 139.47 7.56 139.47 1.32 128.21 1.32 127.72"/><polygon class="cls-5" points="1.32 127.23 8.1 139.47 7.83 139.47 1.32 127.72 1.32 127.23"/><polygon class="cls-6" points="1.32 126.74 8.37 139.47 8.1 139.47 1.32 127.23 1.32 126.74"/><polygon class="cls-6" points="1.32 126.25 8.64 139.47 8.37 139.47 1.32 126.74 1.32 126.25"/><polygon class="cls-6" points="1.32 125.77 8.91 139.47 8.64 139.47 1.32 126.25 1.32 125.77"/><polygon class="cls-7" points="1.32 125.28 9.18 139.47 8.91 139.47 1.32 125.77 1.32 125.28"/><polygon class="cls-7" points="1.32 124.79 9.45 139.47 9.18 139.47 1.32 125.28 1.32 124.79"/><polygon class="cls-7" points="1.32 124.3 9.72 139.47 9.45 139.47 1.32 124.79 1.32 124.3"/><polygon class="cls-8" points="1.32 124.19 1.48 124.11 9.99 139.47 9.72 139.47 1.32 124.3 1.32 124.19"/><polygon class="cls-8" points="1.48 124.11 1.69 124 10.27 139.47 9.99 139.47 1.48 124.11"/><polygon class="cls-9" points="1.69 124 1.9 123.89 10.54 139.47 10.27 139.47 1.69 124"/><polygon class="cls-9" points="1.9 123.89 2.12 123.78 10.81 139.47 10.54 139.47 1.9 123.89"/><polygon class="cls-10" points="2.12 123.78 2.33 123.68 11.08 139.47 10.81 139.47 2.12 123.78"/><polygon class="cls-10" points="2.33 123.68 2.54 123.57 11.35 139.47 11.08 139.47 2.33 123.68"/><polygon class="cls-11" points="2.54 123.57 2.75 123.46 11.62 139.47 11.35 139.47 2.54 123.57"/><polygon class="cls-11" points="2.75 123.46 2.96 123.35 11.89 139.47 11.62 139.47 2.75 123.46"/><polygon class="cls-11" points="2.96 123.35 3.17 123.25 12.16 139.47 11.89 139.47 2.96 123.35"/><polygon class="cls-11" points="3.17 123.25 3.38 123.14 12.43 139.47 12.16 139.47 3.17 123.25"/><polygon class="cls-12" points="3.38 123.14 3.59 123.03 12.7 139.47 12.43 139.47 3.38 123.14"/><polygon class="cls-12" points="3.59 123.03 3.8 122.92 12.97 139.47 12.7 139.47 3.59 123.03"/><polygon class="cls-13" points="3.8 122.92 4.01 122.81 13.24 139.47 12.97 139.47 3.8 122.92"/><polygon class="cls-13" points="4.01 122.81 4.23 122.71 13.52 139.47 13.24 139.47 4.01 122.81"/><polygon class="cls-14" points="4.23 122.71 4.44 122.6 13.79 139.47 13.52 139.47 4.23 122.71"/><polygon class="cls-15" points="4.44 122.6 4.65 122.49 14.06 139.47 13.79 139.47 4.44 122.6"/><polygon class="cls-16" points="4.65 122.49 4.86 122.38 14.33 139.47 14.06 139.47 4.65 122.49"/><polygon class="cls-17" points="4.86 122.38 5.07 122.28 14.6 139.47 14.33 139.47 4.86 122.38"/><polygon class="cls-17" points="5.07 122.28 5.28 122.17 14.87 139.47 14.6 139.47 5.07 122.28"/><polygon class="cls-18" points="5.28 122.17 5.49 122.06 15.14 139.47 14.87 139.47 5.28 122.17"/><polygon class="cls-19" points="5.49 122.06 5.71 121.95 15.41 139.47 15.14 139.47 5.49 122.06"/><polygon class="cls-19" points="5.71 121.95 5.92 121.85 15.68 139.47 15.41 139.47 5.71 121.95"/><polygon class="cls-20" points="5.92 121.85 6.13 121.74 15.95 139.47 15.68 139.47 5.92 121.85"/><polygon class="cls-21" points="6.13 121.74 6.34 121.63 16.22 139.47 15.95 139.47 6.13 121.74"/><polygon class="cls-21" points="6.34 121.63 6.55 121.52 16.49 139.47 16.22 139.47 6.34 121.63"/><polygon class="cls-21" points="6.55 121.52 6.76 121.42 16.77 139.47 16.49 139.47 6.55 121.52"/><polygon class="cls-22" points="6.76 121.42 6.97 121.31 17.04 139.47 16.77 139.47 6.76 121.42"/><polygon class="cls-23" points="6.97 121.31 7.18 121.2 17.31 139.47 17.04 139.47 6.97 121.31"/><polygon class="cls-24" points="7.18 121.2 7.39 121.09 17.58 139.47 17.31 139.47 7.18 121.2"/><polygon class="cls-25" points="7.39 121.09 7.61 120.98 17.85 139.47 17.58 139.47 7.39 121.09"/><polygon class="cls-26" points="7.61 120.98 7.82 120.88 18.12 139.47 17.85 139.47 7.61 120.98"/><polygon class="cls-27" points="7.82 120.88 8.03 120.77 18.39 139.47 18.12 139.47 7.82 120.88"/><polygon class="cls-27" points="8.03 120.77 8.24 120.66 18.66 139.47 18.39 139.47 8.03 120.77"/><polygon class="cls-28" points="8.24 120.66 8.45 120.55 18.93 139.47 18.66 139.47 8.24 120.66"/><polygon class="cls-29" points="8.45 120.55 8.66 120.44 19.2 139.47 18.93 139.47 8.45 120.55"/><polygon class="cls-30" points="8.66 120.44 8.87 120.34 19.47 139.47 19.2 139.47 8.66 120.44"/><polygon class="cls-31" points="8.87 120.34 9.08 120.23 19.74 139.47 19.47 139.47 8.87 120.34"/><polygon class="cls-31" points="9.08 120.23 9.29 120.12 20.02 139.47 19.74 139.47 9.08 120.23"/><polygon class="cls-32" points="9.29 120.12 9.51 120.01 20.29 139.47 20.02 139.47 9.29 120.12"/><polygon class="cls-32" points="9.51 120.01 9.72 119.91 20.56 139.47 20.29 139.47 9.51 120.01"/><polygon class="cls-33" points="9.72 119.91 9.93 119.8 20.83 139.47 20.56 139.47 9.72 119.91"/><polygon class="cls-34" points="9.93 119.8 10.14 119.69 21.1 139.47 20.83 139.47 9.93 119.8"/><polygon class="cls-35" points="10.14 119.69 10.35 119.58 21.37 139.47 21.1 139.47 10.14 119.69"/><polygon class="cls-35" points="10.35 119.58 10.56 119.47 21.64 139.47 21.37 139.47 10.35 119.58"/><polygon class="cls-36" points="10.56 119.47 10.77 119.37 21.91 139.47 21.64 139.47 10.56 119.47"/><polygon class="cls-37" points="10.77 119.37 10.98 119.26 22.18 139.47 21.91 139.47 10.77 119.37"/><polygon class="cls-38" points="10.98 119.26 11.19 119.15 22.45 139.47 22.18 139.47 10.98 119.26"/><polygon class="cls-39" points="11.19 119.15 11.4 119.04 22.72 139.47 22.45 139.47 11.19 119.15"/><polygon class="cls-40" points="11.4 119.04 11.62 118.94 22.99 139.47 22.72 139.47 11.4 119.04"/><polygon class="cls-41" points="11.62 118.94 11.83 118.83 23.26 139.47 22.99 139.47 11.62 118.94"/><polygon class="cls-42" points="11.83 118.83 12.04 118.72 23.54 139.47 23.26 139.47 11.83 118.83"/><polygon class="cls-43" points="12.04 118.72 12.25 118.61 23.81 139.47 23.54 139.47 12.04 118.72"/><polygon class="cls-44" points="12.25 118.61 12.46 118.51 24.08 139.47 23.81 139.47 12.25 118.61"/><polygon class="cls-44" points="12.46 118.51 12.67 118.4 24.35 139.47 24.08 139.47 12.46 118.51"/><polygon class="cls-45" points="12.67 118.4 12.88 118.29 24.62 139.47 24.35 139.47 12.67 118.4"/><polygon class="cls-46" points="12.88 118.29 13.09 118.18 24.89 139.47 24.62 139.47 12.88 118.29"/><polygon class="cls-47" points="13.09 118.18 13.3 118.08 25.16 139.47 24.89 139.47 13.09 118.18"/><polygon class="cls-48" points="13.3 118.08 13.52 117.97 25.43 139.47 25.16 139.47 13.3 118.08"/><polygon class="cls-49" points="13.52 117.97 13.73 117.86 25.7 139.47 25.43 139.47 13.52 117.97"/><polygon class="cls-50" points="13.73 117.86 13.94 117.75 25.97 139.47 25.7 139.47 13.73 117.86"/><polygon class="cls-51" points="13.94 117.75 14.15 117.64 26.24 139.47 25.97 139.47 13.94 117.75"/><polygon class="cls-52" points="14.15 117.64 14.36 117.54 26.51 139.47 26.24 139.47 14.15 117.64"/><polygon class="cls-53" points="14.36 117.54 14.57 117.43 26.79 139.47 26.51 139.47 14.36 117.54"/><polygon class="cls-54" points="14.57 117.43 14.78 117.32 27.06 139.47 26.79 139.47 14.57 117.43"/><polygon class="cls-55" points="14.78 117.32 14.99 117.21 27.27 139.37 27.06 139.47 27.06 139.47 14.78 117.32"/><polygon class="cls-56" points="14.99 117.21 15.21 117.11 27.48 139.26 27.27 139.37 14.99 117.21"/><polygon class="cls-57" points="15.21 117.11 15.42 117 27.69 139.15 27.48 139.26 15.21 117.11"/><polygon class="cls-58" points="15.42 117 15.63 116.89 27.9 139.04 27.69 139.15 15.42 117"/><polygon class="cls-59" points="15.63 116.89 15.84 116.78 28.11 138.93 27.9 139.04 15.63 116.89"/><polygon class="cls-60" points="15.84 116.78 16.05 116.67 28.32 138.83 28.11 138.93 15.84 116.78"/><polygon class="cls-60" points="16.05 116.67 16.26 116.57 28.54 138.72 28.32 138.83 16.05 116.67"/><polygon class="cls-61" points="16.26 116.57 16.47 116.46 28.75 138.61 28.54 138.72 16.26 116.57"/><polygon class="cls-62" points="16.47 116.46 16.68 116.35 28.96 138.5 28.75 138.61 16.47 116.46"/><polygon class="cls-63" points="16.68 116.35 16.89 116.24 29.17 138.4 28.96 138.5 16.68 116.35"/><polygon class="cls-64" points="16.89 116.24 17.11 116.14 29.38 138.29 29.17 138.4 16.89 116.24"/><polygon class="cls-65" points="17.11 116.14 17.32 116.03 29.59 138.18 29.38 138.29 17.11 116.14"/><polygon class="cls-66" points="17.32 116.03 17.53 115.92 29.8 138.07 29.59 138.18 17.32 116.03"/><polygon class="cls-67" points="17.53 115.92 17.74 115.81 30.01 137.96 29.8 138.07 17.53 115.92"/><polygon class="cls-68" points="17.74 115.81 17.95 115.7 30.22 137.86 30.01 137.96 17.74 115.81"/><polygon class="cls-69" points="17.95 115.7 18.16 115.6 30.44 137.75 30.22 137.86 17.95 115.7"/><polygon class="cls-70" points="18.16 115.6 18.37 115.49 30.65 137.64 30.44 137.75 18.16 115.6"/><polygon class="cls-71" points="18.37 115.49 18.58 115.38 30.86 137.53 30.65 137.64 18.37 115.49"/><polygon class="cls-72" points="18.58 115.38 18.8 115.27 31.07 137.43 30.86 137.53 18.58 115.38"/><polygon class="cls-73" points="18.8 115.27 19.01 115.17 31.28 137.32 31.07 137.43 18.8 115.27"/><polygon class="cls-74" points="19.01 115.17 19.22 115.06 31.49 137.21 31.28 137.32 19.01 115.17"/><polygon class="cls-75" points="19.22 115.06 19.43 114.95 31.7 137.1 31.49 137.21 19.22 115.06"/><polygon class="cls-76" points="19.43 114.95 19.64 114.84 31.91 136.99 31.7 137.1 19.43 114.95"/><polygon class="cls-77" points="19.64 114.84 19.85 114.73 32.13 136.89 31.91 136.99 19.64 114.84"/><polygon class="cls-78" points="19.85 114.73 20.06 114.63 32.34 136.78 32.13 136.89 19.85 114.73"/><polygon class="cls-78" points="20.06 114.63 20.27 114.52 32.55 136.67 32.34 136.78 20.06 114.63"/><polygon class="cls-79" points="20.27 114.52 20.48 114.41 32.76 136.56 32.55 136.67 20.27 114.52"/><polygon class="cls-80" points="20.48 114.41 20.7 114.3 32.97 136.46 32.76 136.56 20.48 114.41"/><polygon class="cls-81" points="20.7 114.3 20.91 114.2 33.18 136.35 32.97 136.46 20.7 114.3"/><polygon class="cls-82" points="20.91 114.2 21.12 114.09 33.39 136.24 33.18 136.35 20.91 114.2"/><polygon class="cls-83" points="21.12 114.09 21.33 113.98 33.6 136.13 33.39 136.24 21.12 114.09"/><polygon class="cls-84" points="21.33 113.98 21.54 113.87 33.81 136.03 33.6 136.13 21.33 113.98"/><polygon class="cls-85" points="21.54 113.87 21.75 113.77 34.02 135.92 33.81 136.03 21.54 113.87"/><polygon class="cls-86" points="21.75 113.77 21.96 113.66 34.24 135.81 34.02 135.92 21.75 113.77"/><polygon class="cls-87" points="21.96 113.66 22.17 113.55 34.45 135.7 34.24 135.81 21.96 113.66"/><polygon class="cls-88" points="22.17 113.55 22.38 113.44 34.66 135.59 34.45 135.7 22.17 113.55"/><polygon class="cls-89" points="22.38 113.44 22.59 113.33 34.87 135.49 34.66 135.59 22.38 113.44"/><polygon class="cls-90" points="22.59 113.33 22.81 113.23 35.08 135.38 34.87 135.49 22.59 113.33"/><polygon class="cls-91" points="22.81 113.23 23.02 113.12 35.29 135.27 35.08 135.38 22.81 113.23"/><polygon class="cls-91" points="23.02 113.12 23.23 113.01 35.5 135.16 35.29 135.27 23.02 113.12"/><polygon class="cls-92" points="23.23 113.01 23.44 112.9 35.71 135.06 35.5 135.16 23.23 113.01"/><polygon class="cls-93" points="23.44 112.9 23.65 112.8 35.92 134.95 35.71 135.06 23.44 112.9"/><polygon class="cls-94" points="23.65 112.8 23.86 112.69 36.14 134.84 35.92 134.95 23.65 112.8"/><polygon class="cls-95" points="23.86 112.69 24.07 112.58 36.35 134.73 36.14 134.84 23.86 112.69"/><polygon class="cls-96" points="24.07 112.58 24.28 112.47 36.56 134.62 36.35 134.73 24.07 112.58"/><polygon class="cls-97" points="24.28 112.47 24.5 112.36 36.77 134.52 36.56 134.62 24.28 112.47"/><polygon class="cls-98" points="24.5 112.36 24.71 112.26 36.98 134.41 36.77 134.52 24.5 112.36"/><polygon class="cls-99" points="24.71 112.26 24.92 112.15 37.19 134.3 36.98 134.41 24.71 112.26"/><polygon class="cls-100" points="24.92 112.15 25.13 112.04 37.4 134.19 37.19 134.3 24.92 112.15"/><polygon class="cls-101" points="25.13 112.04 25.34 111.93 37.61 134.09 37.4 134.19 25.13 112.04"/><polygon class="cls-102" points="25.34 111.93 25.55 111.83 37.83 133.98 37.61 134.09 25.34 111.93"/><polygon class="cls-103" points="25.55 111.83 25.76 111.72 38.04 133.87 37.83 133.98 25.55 111.83"/><polygon class="cls-104" points="25.76 111.72 25.97 111.61 38.25 133.76 38.04 133.87 25.76 111.72"/><polygon class="cls-105" points="25.97 111.61 26.18 111.5 38.46 133.65 38.25 133.76 25.97 111.61"/><polygon class="cls-106" points="26.18 111.5 26.39 111.39 38.67 133.55 38.46 133.65 26.18 111.5"/><polygon class="cls-107" points="26.39 111.39 26.61 111.29 38.88 133.44 38.67 133.55 26.39 111.39"/><polygon class="cls-108" points="26.61 111.29 26.82 111.18 39.09 133.33 38.88 133.44 26.61 111.29"/><polygon class="cls-109" points="26.82 111.18 27.03 111.07 39.3 133.22 39.09 133.33 26.82 111.18"/><polygon class="cls-110" points="27.03 111.07 27.24 110.96 39.51 133.12 39.3 133.22 27.03 111.07"/><polygon class="cls-111" points="27.24 110.96 27.45 110.86 39.73 133.01 39.51 133.12 27.24 110.96"/><polygon class="cls-112" points="27.45 110.86 27.66 110.75 39.94 132.9 39.73 133.01 27.45 110.86"/><polygon class="cls-113" points="27.66 110.75 27.87 110.64 40.15 132.79 39.94 132.9 27.66 110.75"/><polygon class="cls-114" points="27.87 110.64 28.08 110.53 40.36 132.69 40.15 132.79 27.87 110.64"/><polygon class="cls-115" points="28.08 110.53 28.23 110.46 28.32 110.46 40.57 132.58 40.36 132.69 28.08 110.53"/><polygon class="cls-116" points="28.59 110.46 40.78 132.47 40.57 132.58 28.32 110.46 28.59 110.46"/><polygon class="cls-117" points="28.86 110.46 40.99 132.36 40.78 132.47 28.59 110.46 28.86 110.46"/><polygon class="cls-118" points="29.13 110.46 41.2 132.25 40.99 132.36 28.86 110.46 29.13 110.46"/><polygon class="cls-119" points="29.4 110.46 41.41 132.15 41.2 132.25 29.13 110.46 29.4 110.46"/><polygon class="cls-120" points="29.67 110.46 41.63 132.04 41.41 132.15 29.4 110.46 29.67 110.46"/><polygon class="cls-121" points="29.94 110.46 41.84 131.93 41.63 132.04 29.67 110.46 29.94 110.46"/><polygon class="cls-122" points="30.21 110.46 42.05 131.82 41.84 131.93 29.94 110.46 30.21 110.46"/><polygon class="cls-123" points="30.48 110.46 42.26 131.72 42.05 131.82 30.21 110.46 30.48 110.46"/><polygon class="cls-124" points="30.75 110.46 42.37 131.42 42.37 131.66 42.26 131.72 30.48 110.46 30.75 110.46"/><polygon class="cls-125" points="31.02 110.46 42.37 130.93 42.37 131.42 30.75 110.46 31.02 110.46"/><polygon class="cls-126" points="31.29 110.46 42.37 130.44 42.37 130.93 31.02 110.46 31.29 110.46"/><polygon class="cls-127" points="31.57 110.46 42.37 129.95 42.37 130.44 31.29 110.46 31.57 110.46"/><polygon class="cls-128" points="31.84 110.46 42.37 129.46 42.37 129.95 31.57 110.46 31.84 110.46"/><polygon class="cls-129" points="32.11 110.46 42.37 128.97 42.37 129.46 31.84 110.46 32.11 110.46"/><polygon class="cls-130" points="32.38 110.46 42.37 128.49 42.37 128.97 32.11 110.46 32.38 110.46"/><polygon class="cls-131" points="32.65 110.46 42.37 128 42.37 128.49 32.38 110.46 32.65 110.46"/><polygon class="cls-132" points="32.92 110.46 42.37 127.51 42.37 128 32.65 110.46 32.92 110.46"/><polygon class="cls-133" points="33.19 110.46 42.37 127.02 42.37 127.51 32.92 110.46 33.19 110.46"/><polygon class="cls-134" points="33.46 110.46 42.37 126.53 42.37 127.02 33.19 110.46 33.46 110.46"/><polygon class="cls-135" points="33.73 110.46 42.37 126.04 42.37 126.53 33.46 110.46 33.73 110.46"/><polygon class="cls-136" points="34 110.46 42.37 125.55 42.37 126.04 33.73 110.46 34 110.46"/><polygon class="cls-137" points="34.27 110.46 42.37 125.06 42.37 125.55 34 110.46 34.27 110.46"/><polygon class="cls-138" points="34.54 110.46 42.37 124.57 42.37 125.06 34.27 110.46 34.54 110.46"/><polygon class="cls-138" points="42.37 124.57 34.54 110.46 42.37 110.46 42.37 124.57"/></g><g class="cls-139"><path class="cls-140" d="M37.37,135.56c7.32-6.1,6.22-13.22,14.26-16.57,10-4.19,16.8,5.26,16.8,5.26a14.35,14.35,0,0,1,.29,2.56A16.38,16.38,0,0,0,68.5,122s-6.74-9.45-16.8-5.27S45.89,131,30,137.61A28.47,28.47,0,0,1,37.37,135.56Z" transform="translate(-28.72 -2.07)"/></g><g class="cls-141"><path class="cls-142" d="M68.32,129.09a12.16,12.16,0,0,1-5.67,4.55c-8.32,3.47-13.23-3.14-23.66-1.79a26.43,26.43,0,0,1-9,5.76c15.85-6.61,20.94,3.93,31-.26A11.86,11.86,0,0,0,68.32,129.09Z" transform="translate(-28.72 -2.07)"/></g><path class="cls-143" d="M42.59,132.61c9.23-3.85,15.48,2.28,21.33-.15s3.74-10.3,3.74-10.3-4.54-6.86-10.39-4.42S51.82,128.76,42.59,132.61Z" transform="translate(-28.72 -2.07)"/><path class="cls-142" d="M56,139.21a26.88,26.88,0,0,1-7.18-1.31c-4.84-1.34-10.33-2.86-18.87.69a.87.87,0,0,1-1.13-.42.78.78,0,0,1-.07-.33.8.8,0,0,1,.52-.75c8.55-3.57,11.22-8.28,13.58-12.43,2-3.46,3.81-6.73,8.54-8.7a13.66,13.66,0,0,1,13,1.13,18.43,18.43,0,0,1,4.87,4.42,1.08,1.08,0,0,1,.13.29,17.39,17.39,0,0,1,0,6.43,12.78,12.78,0,0,1-8,9.87A13.84,13.84,0,0,1,56,139.21Zm-16-4.47a33.51,33.51,0,0,1,9.28,1.58c3.89,1.08,7.25,2,11.42.27,8.68-3.61,7.26-13,7-14.28-.87-1.14-6.9-8.49-15.66-4.84-4.19,1.74-5.82,4.63-7.72,8-1.76,3.1-3.68,6.5-7.88,9.57A23.54,23.54,0,0,1,40,134.74Z" transform="translate(-28.72 -2.07)"/><path class="cls-140" d="M120.3,72.69s11.12,4.49,13,7.26-5,2.84-5,2.84" transform="translate(-28.72 -2.07)"/><path class="cls-142" d="M128.28,83.73a1,1,0,0,1-.79-.37l-8-10.09a.93.93,0,0,1,0-1.16,1,1,0,0,1,1.16-.29c1.17.47,11.45,4.68,13.45,7.61a2.08,2.08,0,0,1,.24,2.32c-1,1.8-4.91,2-6.08,2Zm-4.86-8.65,5.34,6.75c1.84-.09,3.62-.52,3.87-1,0,0,0-.2-.16-.39C131.53,79.08,127.26,76.83,123.42,75.08Z" transform="translate(-28.72 -2.07)"/><path class="cls-140" d="M73.64,49.19c-4.31,3.11-8.27,17.9-7.27,26.71s17.24,9.47,26.52,9.19,9.25-20.43,9.13-25.83C101.83,50.83,80,44.59,73.64,49.19Z" transform="translate(-28.72 -2.07)"/><g class="cls-144"><path class="cls-142" d="M92.89,85.09c-9.28.28-25.52-.38-26.52-9.19a27.94,27.94,0,0,1-.15-3.73c2.57,1.93,6.14.21,6.57-2.15,2.66-14.61,8.33-20.21,11.07-22.13,8.35,1.13,18,5.76,18.16,11.37C102.14,64.66,102.18,84.8,92.89,85.09Z" transform="translate(-28.72 -2.07)"/></g><path class="cls-142" d="M89.65,86.09c-11.22,0-23.33-1.93-24.26-10.09-1-8.53,2.71-24,7.66-27.56,4.39-3.16,14.51-1.65,21.38,1.55,5.45,2.55,8.5,5.83,8.58,9.25.22,9.88-.79,26.51-10.09,26.79Q91.32,86.09,89.65,86.09ZM80.23,48.57a10.68,10.68,0,0,0-6,1.38h0c-4,2.87-7.85,17.36-6.89,25.85.9,7.91,16.37,8.62,25.51,8.34,8.1-.25,8.3-19.09,8.17-24.86,0-2.63-2.78-5.4-7.47-7.59A33.27,33.27,0,0,0,80.23,48.57Zm-6.59.62h0Z" transform="translate(-28.72 -2.07)"/><path class="cls-140" d="M74.56,64l-4.12-1.57a1.69,1.69,0,0,0-2.24,1.08c-.86,3.2-2.19,9.84,1.17,11.2,4.07,1.65,5.51-2.86,6.23-9A1.61,1.61,0,0,0,74.56,64Z" transform="translate(-28.72 -2.07)"/><g class="cls-144"><path class="cls-142" d="M75.59,65.63c-.7,6.19-2.14,10.71-6.21,9.07C67.71,74,67.19,72,67.2,69.82a2.91,2.91,0,0,0,1.51,1.4c3.65,1.47,5.18-2,6-7.19A1.58,1.58,0,0,1,75.59,65.63Z" transform="translate(-28.72 -2.07)"/></g><path class="cls-142" d="M71,75.91A5,5,0,0,1,69,75.5C65.3,74,66,68,67.31,63.28a2.46,2.46,0,0,1,1.32-1.59,2.72,2.72,0,0,1,2.13-.1l4.12,1.57a2.47,2.47,0,0,1,1.62,2.56c-.65,5.7-1.77,8.6-3.75,9.72A3.51,3.51,0,0,1,71,75.91ZM69.8,63.17a.84.84,0,0,0-.34.08.71.71,0,0,0-.38.46c-1.16,4.33-1.6,9.28.65,10.18a2.38,2.38,0,0,0,2.1,0c2-1.16,2.65-6.61,2.85-8.4a.72.72,0,0,0-.47-.75l-4.13-1.57A.87.87,0,0,0,69.8,63.17Z" transform="translate(-28.72 -2.07)"/><path class="cls-142" d="M73,49.21l4.86,2.16c1.61.72,3.22,1.44,4.83,2.23a.45.45,0,0,1,.21.63.5.5,0,0,1-.62.23h0c-1.63-.63-3.31-1.2-5-1.78l-5-1.71h0a.94.94,0,0,1-.61-1.21A1,1,0,0,1,73,49.18Z" transform="translate(-28.72 -2.07)"/><path class="cls-140" d="M147.63,46.36c-1.6,5.24-13.76,15-31.2,15.44a51,51,0,0,1-5.21-.13l-1.55-6.38-1.25-5.11s2.71-.47,6.41-1.42a81.4,81.4,0,0,0,9.8-3.1,29.1,29.1,0,0,0,8.09-4.52s.12-5.26,1.67-5.79c1.89-.65,3.3,3,3.3,3s4.3-4.26,6.82-3.84C148.24,35.16,149.39,40.61,147.63,46.36Z" transform="translate(-28.72 -2.07)"/><g class="cls-145"><path class="cls-142" d="M148.42,42.08a18.41,18.41,0,0,1-.79,4.28c-1.76,5.75-16.21,16.87-36.41,15.31l-2.8-11.49s.84-.15,2.23-.44l3.27,6.09C130.6,60.65,145.68,48,148.42,42.08Z" transform="translate(-28.72 -2.07)"/></g><path class="cls-142" d="M115.06,62.76c-1.28,0-2.59,0-3.91-.15a1,1,0,0,1-.91-1,1,1,0,0,1,1.06-.87c19.92,1.54,33.83-9.55,35.38-14.63,1.11-3.62,1-7.22-.27-9.18a3,3,0,0,0-2.07-1.43c-1.38-.23-4.31,2-6,3.57l-1.09,1.08-.54-1.42c-.44-1.13-1.43-2.65-2-2.47s-1,2.66-1,4.91v.41l-.31.28c-7,6.1-24.07,9.15-24.79,9.27a1,1,0,0,1-1.15-.76,1,1,0,0,1,.79-1.1c.17,0,16.69-3,23.51-8.56.08-1.94.47-5.6,2.3-6.23s3.22,1,3.95,2.32c1.58-1.37,4.47-3.53,6.67-3.17a5,5,0,0,1,3.41,2.3c1.59,2.43,1.78,6.54.5,10.72C146.79,52.48,133.59,62.76,115.06,62.76Zm19.69-26.53" transform="translate(-28.72 -2.07)"/><path class="cls-140" d="M129.52,84.36s-24.42,9.07-33,8.42-17.8-2-18.3-17.55c-.32-9.7,4.68-19.24,8.51-25.07A56.93,56.93,0,0,1,91,44.44l23.58,1.15s.09,1.19.28,3.17c.12,1.24.28,2.78.48,4.53.28,2.51.65,5.44,1.12,8.51a125.56,125.56,0,0,0,2.81,14C119.75,77.6,127.8,78.1,129.52,84.36Z" transform="translate(-28.72 -2.07)"/><path class="cls-142" d="M115.9,55.48a66.45,66.45,0,0,1,1.9,8.34c.51,2.79,1,5.58,1.58,8.34.15.69.31,1.37.48,2.06l.26,1,.07.26h0s0,0,0,0l0,0a1,1,0,0,0,.1.09,5.81,5.81,0,0,0,.78.45c.3.15.63.29,1,.44.66.29,1.36.59,2,.92A14.79,14.79,0,0,1,128,80a9.06,9.06,0,0,1,2.45,4.08l.23.82-.83.3q-5.82,2.13-11.72,4c-4,1.22-7.92,2.37-12,3.29A57.34,57.34,0,0,1,100,93.6a19.46,19.46,0,0,1-3.26.13c-.29,0-.53,0-.79,0l-.78-.06-1.57-.16a28.28,28.28,0,0,1-6.26-1.31,16.66,16.66,0,0,1-3-1.4,12.71,12.71,0,0,1-4.5-4.64,15.2,15.2,0,0,1-1.31-2.88l-.13-.37-.1-.38-.22-.75L77.92,81l-.08-.38-.07-.38-.14-.75c0-.26-.07-.51-.11-.76-.07-.51-.12-1-.16-1.52a31.19,31.19,0,0,1,0-6.11,35.57,35.57,0,0,1,1.19-6,52.61,52.61,0,0,1,4.72-11.18,50.08,50.08,0,0,1,3.15-5.21,18.79,18.79,0,0,1,4.25-4.48.34.34,0,0,1,.51.4h0a44.53,44.53,0,0,1-3,5.16c-1.06,1.67-2.2,3.29-3.15,5A51,51,0,0,0,80.5,65.6a33.38,33.38,0,0,0-1.12,5.68A29.06,29.06,0,0,0,79.32,77c.05.48.09,1,.16,1.43,0,.24.06.48.1.72l.13.7.06.35.08.35.17.7.19.68.1.34.12.33a13.71,13.71,0,0,0,1.15,2.56,11.75,11.75,0,0,0,1.66,2.23,12.2,12.2,0,0,0,4.77,3,25.65,25.65,0,0,0,5.8,1.21c.5.06,1,.1,1.52.15l.76.06c.25,0,.52,0,.75,0s.46,0,.71,0l.73,0c.49,0,1-.06,1.48-.12a54.53,54.53,0,0,0,6-1c4-.9,7.91-2,11.81-3.26s7.8-2.53,11.63-3.93l-.6,1.12a7.15,7.15,0,0,0-1.94-3.23,12.59,12.59,0,0,0-3.38-2.24c-.64-.31-1.3-.59-2-.89l-1-.47a6.72,6.72,0,0,1-1.11-.66,1.88,1.88,0,0,1-.3-.27l-.16-.16a1.53,1.53,0,0,1-.14-.21,1.69,1.69,0,0,1-.23-.49l-.07-.26-.28-1c-.18-.7-.36-1.39-.52-2.09-.34-1.4-.66-2.81-.94-4.21s-.51-2.82-.72-4.24a41.67,41.67,0,0,1-.51-8.58.34.34,0,0,1,.36-.3A.35.35,0,0,1,115.9,55.48Z" transform="translate(-28.72 -2.07)"/><path class="cls-146" d="M80.59,132l-4.22.63a5.35,5.35,0,0,1-5-1.94h0a29.65,29.65,0,0,1-6.24-15.15h0a5,5,0,0,1,2.27-4.69l3.54-2.32" transform="translate(-28.72 -2.07)"/><g class="cls-147"><path class="cls-140" d="M71.69,110.88l-3.5,2.29a5.56,5.56,0,0,0-2,2.26,5.35,5.35,0,0,0-.51,2.93c.08.79.2,1.57.34,2.35a29.14,29.14,0,0,1-.89-4.65,4.92,4.92,0,0,1,.46-2.65,5.06,5.06,0,0,1,1.81-2l3.54-2.32Z" transform="translate(-28.72 -2.07)"/></g><g class="cls-145"><path class="cls-142" d="M67.79,124h0a31.32,31.32,0,0,0,3,4.71,5.39,5.39,0,0,0,5,1.94l3.94-.59-8.85-21.51-.76.5L76.74,125l-4.22.63A5.37,5.37,0,0,1,67.79,124Zm8.15-1-5.76-14,.24-.16,5.8,14.1Z" transform="translate(-28.72 -2.07)"/></g><path class="cls-3" d="M81.34,102.32c-2.2-4.13-9.72-9.6-24.53-.58a.24.24,0,0,0,.09.45c2.46.42,14.05,2.32,16.18,8.1" transform="translate(-28.72 -2.07)"/><g class="cls-147"><path class="cls-140" d="M59.3,102.38c-1.06-.22-1.91-.36-2.4-.44a.24.24,0,0,1-.09-.45c14.81-9,22.33-3.55,24.53.58l-.89.87C77.61,99.42,70.93,96.2,59.3,102.38Z" transform="translate(-28.72 -2.07)"/></g><path class="cls-142" d="M73.08,111.24a1,1,0,0,1-.93-.63c-.71-1.94-3.65-5.48-15.31-7.47l-.12,0a1.23,1.23,0,0,1-1-.94,1.18,1.18,0,0,1,.56-1.24c7.2-4.38,13.47-5.91,18.65-4.56a11.4,11.4,0,0,1,7.29,5.51.93.93,0,0,1-.43,1.28,1,1,0,0,1-1.33-.42,9.42,9.42,0,0,0-6-4.54c-4.18-1.1-9.5.08-15.46,3.39C69.58,103.71,73,107.28,74,110a.93.93,0,0,1-.61,1.2A.87.87,0,0,1,73.08,111.24Z" transform="translate(-28.72 -2.07)"/><path class="cls-148" d="M92.44,129.29c1.34,4.46-.16,13.63-17.4,16.76a.25.25,0,0,1-.25-.39c1.5-1.92,8.51-11.16,5.94-16.78" transform="translate(-28.72 -2.07)"/><path class="cls-3" d="M75,146.05a.25.25,0,0,1-.25-.39,42.89,42.89,0,0,0,4.61-7.24c1.55-3.17,2.57-6.75,1.35-9.48a.14.14,0,0,0,0-.06h.07l11.64.41a9.53,9.53,0,0,1,.17,4.63C91.7,138.42,87.44,143.8,75,146.05Z" transform="translate(-28.72 -2.07)"/><g class="cls-145"><path class="cls-142" d="M79.4,138.42c1.55-3.17,2.57-6.75,1.35-9.48l0-.06,11.64.41a9.53,9.53,0,0,1,.17,4.63C89.83,136.18,85.62,138,79.4,138.42Z" transform="translate(-28.72 -2.07)"/></g><path class="cls-142" d="M75,147a1.27,1.27,0,0,1-1-.56A1.14,1.14,0,0,1,74,145.1c1.93-2.48,8.06-10.95,5.83-15.84a.93.93,0,0,1,.5-1.25,1,1,0,0,1,1.3.49c2.28,5-2,12.22-4.94,16.25,6.63-1.48,11.3-4.11,13.58-7.67a9.27,9.27,0,0,0,1.23-7.53.94.94,0,0,1,.67-1.17,1,1,0,0,1,1.22.65,10.87,10.87,0,0,1-1.44,9c-2.82,4.41-8.45,7.41-16.72,8.91Zm-.13-1.88Z" transform="translate(-28.72 -2.07)"/><path class="cls-140" d="M162.07,87.46s-3.88,23.64-35.78,38.25c-27.19,12.44-46,6.31-46,6.31a36,36,0,0,1-8.17-14.12,35.06,35.06,0,0,1-1.49-9.35s4.17-7.5,15.51-15.08l1.19-.79a83.3,83.3,0,0,1,16.48-8.05c1.56-.56,3.18-1.11,4.87-1.62l.2-.06a81.34,81.34,0,0,1,18.7-3.45l.54,0C149.84,78.3,162.07,87.46,162.07,87.46Z" transform="translate(-28.72 -2.07)"/><path class="cls-3" d="M145.8,113.41a85.55,85.55,0,0,0-14-34c19.6-.13,30.57,8.09,30.57,8.09S160.19,100.65,145.8,113.41Z" transform="translate(-28.72 -2.07)"/><g class="cls-147"><path class="cls-140" d="M162,88.93c.3-1.1.4-1.72.4-1.72s-11-8.22-30.57-8.09q.69,1,1.35,2C149.74,81.34,159.86,87.52,162,88.93Z" transform="translate(-28.72 -2.07)"/></g><path class="cls-142" d="M145.13,115.3l-.31-1.73A84.1,84.1,0,0,0,131,79.89l-1-1.46h1.83c15.53-.1,25.79,5,29.48,7.19a3.44,3.44,0,0,1,1.61,3.92c-1.13,4-5,14.47-16.4,24.58Zm-11.52-35a85.86,85.86,0,0,1,12.84,31.18c10-9.38,13.47-18.77,14.52-22.48a1.61,1.61,0,0,0-.75-1.81C156.82,85.2,147.6,80.62,133.61,80.33Z" transform="translate(-28.72 -2.07)"/><path class="cls-142" d="M93.21,134.48c-8.06,0-12.74-1.5-12.93-1.57l-.25-.07-.17-.19a36.81,36.81,0,0,1-7.21-11.19A36,36,0,0,1,70,108.57v-.24l.12-.22c.1-.18,2.49-4.4,8.47-9.74,5.48-4.9,15.16-11.69,30.16-16.26a81.17,81.17,0,0,1,23.09-3.69h.53l.29.43a85.94,85.94,0,0,1,14.16,34.32l.19.51-.48.43A78.13,78.13,0,0,1,127,126.56c-14.2,6.51-26.11,7.89-33.6,7.92Zm-12.06-3.29a45.86,45.86,0,0,0,12.34,1.39c7.27,0,18.83-1.4,32.65-7.73a76.52,76.52,0,0,0,18.59-11.78,84.15,84.15,0,0,0-13.47-32.75,79.44,79.44,0,0,0-22,3.59c-26.29,8-36.18,23-37.36,24.88a33.89,33.89,0,0,0,2.56,12A35.06,35.06,0,0,0,81.15,131.19Z" transform="translate(-28.72 -2.07)"/><path class="cls-142" d="M75.56,133.66a6.34,6.34,0,0,1-5-2.38,30.54,30.54,0,0,1-6.43-15.62,5.89,5.89,0,0,1,2.7-5.58l3.53-2.31a1,1,0,0,1,1.37.25.93.93,0,0,1-.26,1.32L68,111.65a4,4,0,0,0-1.85,3.81,28.71,28.71,0,0,0,6,14.68,4.35,4.35,0,0,0,4.07,1.57l4.22-.63a1,1,0,0,1,1.13.79,1,1,0,0,1-.82,1.08l-4.23.64A7.89,7.89,0,0,1,75.56,133.66Z" transform="translate(-28.72 -2.07)"/><g class="cls-145"><ellipse class="cls-142" cx="93.62" cy="102.06" rx="13.57" ry="13.03"/></g><ellipse class="cls-3" cx="93.92" cy="100.45" rx="12.21" ry="11.71"/><g class="cls-147"><path class="cls-140" d="M134.65,100.64c-.09-.26-.18-.51-.28-.76a12.39,12.39,0,0,0-15.84-6.59,11.65,11.65,0,0,0-7.52,13,11.59,11.59,0,0,1,7.15-14.46A12.36,12.36,0,0,1,134,98.46,11.83,11.83,0,0,1,134.65,100.64Z" transform="translate(-28.72 -2.07)"/></g><g class="cls-145"><path class="cls-142" d="M127.12,113.41a12.38,12.38,0,0,1-15.83-6.59,11.17,11.17,0,0,1-.76-5.75,10.82,10.82,0,0,0,.72,2.55,12.36,12.36,0,0,0,15.83,6.59,11.78,11.78,0,0,0,7.63-9.45A11.66,11.66,0,0,1,127.12,113.41Z" transform="translate(-28.72 -2.07)"/></g><path class="cls-142" d="M122.64,115.18a13.7,13.7,0,0,1-5.25-1.05,12.88,12.88,0,0,1-7-7,12.14,12.14,0,0,1,.17-9.69,12.89,12.89,0,0,1,7.25-6.74,13.62,13.62,0,0,1,10.1.16,12.85,12.85,0,0,1,7,7,12.06,12.06,0,0,1-.17,9.69,12.86,12.86,0,0,1-7.25,6.74h0A13.56,13.56,0,0,1,122.64,115.18Zm0-23.44a11.73,11.73,0,0,0-4.12.76,10.94,10.94,0,0,0-6.17,5.73,10.31,10.31,0,0,0-.14,8.24,10.87,10.87,0,0,0,6,5.92,11.57,11.57,0,0,0,8.58.14h0a10.94,10.94,0,0,0,6.17-5.73,10.23,10.23,0,0,0,.14-8.24,10.87,10.87,0,0,0-6-5.92A11.5,11.5,0,0,0,122.64,91.74Z" transform="translate(-28.72 -2.07)"/><ellipse class="cls-149" cx="94" cy="100.27" rx="7.76" ry="7.45"/><g class="cls-141"><path class="cls-140" d="M125.58,109.27a7.88,7.88,0,0,1-10.08-4.2,7.09,7.09,0,0,1-.54-2.52l.09.23a7.88,7.88,0,0,0,10.08,4.2A7.47,7.47,0,0,0,130,99.83,7.38,7.38,0,0,1,125.58,109.27Z" transform="translate(-28.72 -2.07)"/></g><g class="cls-145"><path class="cls-142" d="M130.57,102.72c0-.12-.09-.24-.14-.36a7.87,7.87,0,0,0-10.07-4.2,7.47,7.47,0,0,0-4.91,6.79A7.37,7.37,0,0,1,120,95.64,7.88,7.88,0,0,1,130,99.83,7.19,7.19,0,0,1,130.57,102.72Z" transform="translate(-28.72 -2.07)"/></g><path class="cls-142" d="M122.72,110.74a9.16,9.16,0,0,1-3.48-.7,8.51,8.51,0,0,1-4.66-4.62,8.31,8.31,0,0,1,4.93-10.9,8.88,8.88,0,0,1,11.35,4.73,8.3,8.3,0,0,1-4.92,10.9A9.17,9.17,0,0,1,122.72,110.74Zm0-14.91a7.23,7.23,0,0,0-2.48.45,6.44,6.44,0,0,0-3.81,8.44A6.54,6.54,0,0,0,120,108.3a7,7,0,0,0,5.18.08h0A6.43,6.43,0,0,0,129,99.94,6.8,6.8,0,0,0,122.71,95.83Z" transform="translate(-28.72 -2.07)"/><g class="cls-150"><path class="cls-140" d="M148.06,86.36c-.06-1.78-3.91-3.18-6.09-3.16s-3.61.39-3.62,1.44c0,1.46,1.74,2,3.83,2C143.66,86.75,148.14,88.55,148.06,86.36Z" transform="translate(-28.72 -2.07)"/></g><g class="cls-150"><path class="cls-140" d="M153.72,88.6c-.12-1.54-2.06-3-3.12-3.09s-1.74.12-1.69,1a2.11,2.11,0,0,0,2,2C151.6,88.68,153.87,90.51,153.72,88.6Z" transform="translate(-28.72 -2.07)"/></g><g class="cls-145"><path class="cls-142" d="M80.07,130.27s18.8,6.13,46-6.31c27.61-12.64,34.23-32,35.51-37l.34.23c-.4-.27-1.06-.69-2-1.21-3.75,8.18-12.67,21.33-33.22,30.74-12.84,5.87-23.81,7.6-31.8,7.8-10.22.24-19.41-6-22.3-15.45a.75.75,0,0,0,0-.16c-.11-.37-.21-.75-.31-1.13-.06-.15-.11-.31-.16-.46s0-.11,0-.16a1.54,1.54,0,0,0,0-.17l0,0h0a18.78,18.78,0,0,0-1.08,1.65,34.43,34.43,0,0,0,1.19,8.29A36,36,0,0,0,80.07,130.27Z" transform="translate(-28.72 -2.07)"/></g><path class="cls-3" d="M78.74,123.84c-5.6,2.12-12.86,0-12.86,0l.05-.07c.42-.69,4-6.4,9.31-8.4,5-1.91,10.53,0,11.51.44l.15.06S84.3,121.73,78.74,123.84Z" transform="translate(-28.72 -2.07)"/><g class="cls-147"><path class="cls-140" d="M87.16,116.08s-.16.36-.48.93c-1.87-.62-6.5-1.82-10.81-.18s-7.4,5.61-8.7,7.48c-.65-.15-1-.26-1-.26l0-.07c.42-.69,4-6.4,9.31-8.4,5-1.91,10.53,0,11.51.44Z" transform="translate(-28.72 -2.07)"/></g><g class="cls-145"><path class="cls-142" d="M78.74,123.84c-5.6,2.12-12.86,0-12.86,0l.05-.07,20.82-8,.15.06S84.3,121.73,78.74,123.84Z" transform="translate(-28.72 -2.07)"/></g><path class="cls-142" d="M73,125.72a28.61,28.61,0,0,1-7.39-1l-1.17-.35.61-1c.16-.27,4-6.66,9.85-8.88s12.16.4,12.42.51l.89.38-.38.86c-.11.25-2.83,6.29-8.71,8.52A17.42,17.42,0,0,1,73,125.72Zm-5.53-2.52c2.25.49,7.07,1.22,10.93-.24s6.22-5,7.15-6.61c-1.86-.59-6.08-1.6-9.93-.14S68.75,121.37,67.45,123.2Zm-1.57.6h0Z" transform="translate(-28.72 -2.07)"/><g class="cls-144"><path class="cls-142" d="M106.55,104.52c.77,1.07,6.14,9.76,1.82,13.21-3.78,3-10.76,2.53-14.44-2.22A14.32,14.32,0,0,1,91.15,106c.16-3.24.77-6.33-.92-8.76a18.52,18.52,0,0,0-4.07-3.73l1.19-.79a83.3,83.3,0,0,1,16.48-8.05A13.42,13.42,0,0,1,107.39,87c4.1,3.9,4.21,11.73,1.43,14.9C107.73,103.13,106.55,104.52,106.55,104.52Z" transform="translate(-28.72 -2.07)"/></g><path class="cls-140" d="M109,102.15c.78,1.07,6.15,9.76,1.83,13.22-3.78,3-10.76,2.53-14.44-2.23a14.31,14.31,0,0,1-2.78-9.55c.16-3.24.76-6.33-.92-8.76-1.92-2.76-9.4-3.8-13.12-7.89-2.19-2.41-3.37-6.79-3.17-12.15A36.81,36.81,0,0,1,77,69.66a48.94,48.94,0,0,1,12.36-24s2.82,10.85,5.79,20.49c2.06,6.72,4.19,12.86,5.47,14.31a.87.87,0,0,0,.47.32,18.7,18.7,0,0,1,4.9,1.36,13.68,13.68,0,0,1,3.88,2.49c4.09,3.9,4.21,11.73,1.43,14.9C110.19,100.76,109,102.15,109,102.15Z" transform="translate(-28.72 -2.07)"/><g class="cls-144"><path class="cls-142" d="M112.22,113.39a4.26,4.26,0,0,1-1.38,2c-3.78,3-10.76,2.53-14.44-2.23a14.29,14.29,0,0,1-2.78-9.55c.16-3.24.76-6.33-.92-8.76-1.92-2.76-9.4-3.8-13.12-7.89-2.19-2.41-3.37-6.79-3.17-12.15,0,0,0-.05,0-.07,0-.18,0-.36,0-.54s0-.34,0-.51,0-.15,0-.23c0-.4.07-.8.12-1.21,0-.2,0-.39.07-.59l.06-.42c0-.12,0-.23.05-.35s0-.36.08-.55.07-.42.11-.63v0a5.05,5.05,0,0,1,.37-.37A17.56,17.56,0,0,0,79.7,70a60.13,60.13,0,0,0,14.4,1.43L94,67.86a1.81,1.81,0,0,1,1.15-1.73,1.79,1.79,0,0,1,.53-.13l4.48-.46,6.47,15-6-.14-4.52-.11a1.84,1.84,0,0,1-1.76-1.75l-.06-1.8c-4,.85-10.5,1.07-14.74-.27.32,3.74,1.41,6.77,3.1,8.63,3.72,4.09,9.29,1.89,13.07,6.11,2.36,2.65,1.12,7.29,1,10.54-.14,2.77-1.26,6.84,1.17,10C101,115.93,108,115.56,112.22,113.39Z" transform="translate(-28.72 -2.07)"/></g><g class="cls-144"><path class="cls-142" d="M124.63,45.66a26.07,26.07,0,0,1-9.32,7.63,27.22,27.22,0,0,1-22.91.34,6.68,6.68,0,0,0-8.75,3.12A44,44,0,0,0,79.7,70a17.56,17.56,0,0,1-2.34-.72,5.05,5.05,0,0,0-.37.37,48.94,48.94,0,0,1,12.36-24l.07.72c1-1.23,1.55-1.92,1.55-1.92l23.58,1.15s.09,1.19.28,3.17A81.4,81.4,0,0,0,124.63,45.66Z" transform="translate(-28.72 -2.07)"/></g><path class="cls-142" d="M101.55,80.51a13,13,0,0,1,3.81.54,14,14,0,0,1,3.56,1.59,11.34,11.34,0,0,1,1.58,1.2,10.57,10.57,0,0,1,1.35,1.49,12.1,12.1,0,0,1,1.71,3.5,15.08,15.08,0,0,1,.62,3.75,14,14,0,0,1-.35,3.8,8.81,8.81,0,0,1-1.68,3.61l-2.37,2.76,0-1.14c.2.28.35.52.51.78l.46.77c.29.52.57,1,.82,1.58a22.72,22.72,0,0,1,1.32,3.32,11.9,11.9,0,0,1,.55,3.65,6.62,6.62,0,0,1-.32,1.94,5.12,5.12,0,0,1-1,1.81l-.18.2-.19.18c-.14.11-.27.25-.4.34s-.54.39-.82.56-.57.32-.86.46l-.91.38a11.43,11.43,0,0,1-3.83.62,12.56,12.56,0,0,1-3.81-.62,11.37,11.37,0,0,1-3.39-1.79,7.06,7.06,0,0,1-.73-.6c-.23-.22-.48-.43-.69-.66l-.62-.72c-.2-.24-.37-.5-.55-.74a14.45,14.45,0,0,1-1.66-3.28,15.49,15.49,0,0,1-.79-3.54q-.09-.9-.09-1.8c0-.3,0-.59,0-.89l.05-.87c.08-1.15.18-2.27.19-3.35a8.17,8.17,0,0,0-.48-3,2.33,2.33,0,0,0-.14-.33c-.06-.1-.1-.22-.17-.32l-.19-.3a2.43,2.43,0,0,0-.2-.25,5.42,5.42,0,0,0-1.14-.91,24.41,24.41,0,0,0-3-1.49,38.23,38.23,0,0,1-6.45-3.25,11.82,11.82,0,0,1-2.77-2.57,12,12,0,0,1-1.71-3.29,19.47,19.47,0,0,1-.87-3.48,27.71,27.71,0,0,1-.3-3.51,36,36,0,0,1,.57-7,47.09,47.09,0,0,1,4.55-13.17,50.43,50.43,0,0,1,3.59-6,20.47,20.47,0,0,1,5-5,.35.35,0,0,1,.47.08.31.31,0,0,1,0,.33h0c-1.12,2.06-2.45,3.87-3.71,5.74a51.86,51.86,0,0,0-3.57,5.75A45.18,45.18,0,0,0,77.93,70a35,35,0,0,0-.54,6.61,27.38,27.38,0,0,0,.28,3.27A19.34,19.34,0,0,0,78.45,83,10.56,10.56,0,0,0,79.9,85.8a9.93,9.93,0,0,0,2.32,2.14A36.44,36.44,0,0,0,88.34,91a25.64,25.64,0,0,1,3.29,1.62A7.61,7.61,0,0,1,93.2,93.9a5.12,5.12,0,0,1,.34.44l.26.42c.09.14.16.3.24.44a3.76,3.76,0,0,1,.2.46,7.84,7.84,0,0,1,.48,1.86,12.68,12.68,0,0,1,.12,1.83c0,1.19-.11,2.34-.19,3.46l-.05.84c0,.27,0,.53,0,.8,0,.54,0,1.08.09,1.61a13.18,13.18,0,0,0,.69,3.12A10.8,10.8,0,0,0,99,114.31a9.56,9.56,0,0,0,2.81,1.48,10.31,10.31,0,0,0,3.17.51,9.17,9.17,0,0,0,3.13-.5l.73-.3c.23-.11.45-.24.68-.36s.42-.3.63-.44a3.2,3.2,0,0,0,.27-.22l.12-.12.11-.12a3.94,3.94,0,0,0,.89-2.58,10.13,10.13,0,0,0-.48-3.08,19.64,19.64,0,0,0-1.21-3c-.24-.5-.49-1-.77-1.47q-.19-.36-.42-.72c-.14-.23-.29-.47-.43-.66l-.42-.59.47-.55,2.36-2.74A7,7,0,0,0,111.9,96a12.58,12.58,0,0,0-.36-6.55,11,11,0,0,0-1.43-2.92,8.22,8.22,0,0,0-1-1.23,10.22,10.22,0,0,0-1.28-1.07,19.44,19.44,0,0,0-3-1.73,33.37,33.37,0,0,0-3.35-1.33h0a.32.32,0,0,1-.2-.41A.34.34,0,0,1,101.55,80.51Z" transform="translate(-28.72 -2.07)"/><path class="cls-142" d="M93.7,98.08a.73.73,0,0,1-.73-.61c-1.15-8.17,3.89-12,6.12-13.32,3.68-2.13,8.12-2.32,10.79-.48a.69.69,0,0,1,.17,1,.75.75,0,0,1-1,.16c-2.18-1.49-6-1.26-9.17.55-2,1.13-6.44,4.57-5.41,11.91a.72.72,0,0,1-.64.8Z" transform="translate(-28.72 -2.07)"/><path class="cls-142" d="M110.37,102c-.1.1-.17.15-.26.23l-.25.19-.52.34a9,9,0,0,1-1.11.58,8.46,8.46,0,0,1-2.45.66,6.1,6.1,0,0,1-2.55-.22,4.36,4.36,0,0,1-2-1.33,10.52,10.52,0,0,0,2.24.2,7,7,0,0,0,1-.08,6.71,6.71,0,0,0,1-.21,10.67,10.67,0,0,0,1.89-.76c.31-.16.61-.33.9-.5l.44-.27.4-.26.06,0a1,1,0,0,1,1.37.26A.92.92,0,0,1,110.37,102Z" transform="translate(-28.72 -2.07)"/><path class="cls-140" d="M129.26,34.39h0a.54.54,0,0,1-.57-.48l-1-14.68a.53.53,0,0,1,.5-.55h0a5.52,5.52,0,0,1,5.93,5l.33,5A5.44,5.44,0,0,1,129.26,34.39Z" transform="translate(-28.72 -2.07)"/><path class="cls-142" d="M129.22,34.49a.62.62,0,0,1-.63-.58l-1-14.68a.62.62,0,0,1,.59-.65,5.62,5.62,0,0,1,6,5.1l.34,5a5.25,5.25,0,0,1-1.41,3.95,5.75,5.75,0,0,1-3.91,1.85h0Zm0-.1Zm-.69-15.62-.35,0a.42.42,0,0,0-.3.13.42.42,0,0,0-.1.3l1,14.68a.41.41,0,0,0,.45.38A5.53,5.53,0,0,0,133,32.51a5.1,5.1,0,0,0,1.36-3.81l-.34-5a5.16,5.16,0,0,0-1.84-3.62A5.59,5.59,0,0,0,128.57,18.77Z" transform="translate(-28.72 -2.07)"/><g class="cls-145"><path class="cls-142" d="M134.32,26.35l.15,2.35a5.44,5.44,0,0,1-5.21,5.69.54.54,0,0,1-.57-.48l-.26-3.9a.54.54,0,0,0,.5.27l.37,0A5.52,5.52,0,0,0,134.32,26.35Z" transform="translate(-28.72 -2.07)"/></g><path class="cls-142" d="M129.22,35.33A1.49,1.49,0,0,1,127.71,34l-1-14.68a1.48,1.48,0,0,1,1.42-1.55,6.66,6.66,0,0,1,4.76,1.56,6.18,6.18,0,0,1,2.21,4.33l.34,5a6.1,6.1,0,0,1-1.63,4.56,6.62,6.62,0,0,1-4.51,2.13h-.1Zm0-.94Zm-.53-14.77.92,13.77a4.46,4.46,0,0,0,3.84-4.63l-.34-5a4.25,4.25,0,0,0-1.55-3A4.69,4.69,0,0,0,128.73,19.62Z" transform="translate(-28.72 -2.07)"/><path class="cls-140" d="M77.71,21.78h0a.53.53,0,0,1,.57.48l1,14.68a.52.52,0,0,1-.5.54h0a5.51,5.51,0,0,1-5.93-5l-.33-5A5.44,5.44,0,0,1,77.71,21.78Z" transform="translate(-28.72 -2.07)"/><path class="cls-142" d="M78.39,37.6a5.78,5.78,0,0,1-3.75-1.37,5.3,5.3,0,0,1-1.91-3.75l-.34-5a5.27,5.27,0,0,1,1.41-4,5.74,5.74,0,0,1,3.91-1.84h0a.63.63,0,0,1,.67.57l1,14.68a.57.57,0,0,1-.16.45.62.62,0,0,1-.43.2Zm-.67-15.72A5.49,5.49,0,0,0,74,23.66a5.07,5.07,0,0,0-1.36,3.8l.34,5a5.16,5.16,0,0,0,1.84,3.61,5.58,5.58,0,0,0,4,1.3.43.43,0,0,0,.3-.14.38.38,0,0,0,.1-.29l-1-14.68a.42.42,0,0,0-.45-.39Z" transform="translate(-28.72 -2.07)"/><g class="cls-145"><path class="cls-142" d="M79,32.87l.27,4.07a.52.52,0,0,1-.5.54A5.72,5.72,0,0,1,74.55,36a5.26,5.26,0,0,1-1.72-3.54l-.14-2.11A5.63,5.63,0,0,0,78,33.2l.55,0A.55.55,0,0,0,79,32.87Z" transform="translate(-28.72 -2.07)"/></g><path class="cls-142" d="M78.4,38.44a6.47,6.47,0,0,1-6.55-5.9l-.34-5A6.13,6.13,0,0,1,73.14,23a6.61,6.61,0,0,1,4.51-2.12h0a1.49,1.49,0,0,1,1.61,1.36l1,14.68a1.44,1.44,0,0,1-.37,1.06,1.57,1.57,0,0,1-1.05.49ZM77.32,22.78a4.46,4.46,0,0,0-3.84,4.63l.34,5a4.27,4.27,0,0,0,1.55,3,4.62,4.62,0,0,0,2.87,1.09Z" transform="translate(-28.72 -2.07)"/><ellipse class="cls-140" cx="74.77" cy="26.02" rx="26.12" ry="25.07"/><path class="cls-142" d="M103.49,53.26h-.19c-14.46-.09-26.14-11.47-26-25.35s11.85-25,26.23-25h.19a26.62,26.62,0,0,1,18.49,7.5,24.49,24.49,0,0,1,7.55,17.85C129.61,42.08,117.87,53.26,103.49,53.26Zm0-50.15A26.42,26.42,0,0,0,85.22,10.3,24.26,24.26,0,0,0,85,45.61a26.79,26.79,0,0,0,36.79.25A24.25,24.25,0,0,0,122,10.55a26.42,26.42,0,0,0-18.35-7.44Z" transform="translate(-28.72 -2.07)"/><g class="cls-145"><path class="cls-142" d="M129.39,24.79a24.87,24.87,0,0,1,.22,3.47c-.1,13.85-11.88,25-26.31,24.89s-26-11.4-25.94-25.25c0-.39,0-.79,0-1.18,1.67,12.21,12.51,21.68,25.71,21.77C117.13,48.59,128.64,38.08,129.39,24.79Z" transform="translate(-28.72 -2.07)"/></g><path class="cls-142" d="M103.49,54.1h-.2a27.5,27.5,0,0,1-19.11-7.75,25.28,25.28,0,0,1,.28-36.79,27.91,27.91,0,0,1,38.33.26,25.27,25.27,0,0,1-.27,36.79A27.5,27.5,0,0,1,103.49,54.1Zm0-50.14A25.53,25.53,0,0,0,85.84,10.9,23.44,23.44,0,0,0,85.59,45a25.88,25.88,0,0,0,35.55.24,23.45,23.45,0,0,0,.25-34.11A25.51,25.51,0,0,0,103.67,4Z" transform="translate(-28.72 -2.07)"/><path class="cls-151" d="M129.52,28.91a21.92,21.92,0,0,1-4.38,13.26C123,45,114.33,50,103.53,50.2c-10,.16-19.17-4.89-21.32-7.7A21.91,21.91,0,0,1,77.6,29.3c-.11-13,11.47-18.45,25.81-18.56S129.42,15.92,129.52,28.91Z" transform="translate(-28.72 -2.07)"/><path class="cls-142" d="M103,50.77c-10.14,0-19.09-5.05-21.31-7.94A22.48,22.48,0,0,1,77,29.31a16.21,16.21,0,0,1,7.75-14.59c4.54-2.91,11-4.49,18.65-4.54s14.13,1.41,18.71,4.26a16.19,16.19,0,0,1,8,14.46h0a22.37,22.37,0,0,1-4.5,13.6c-2.06,2.79-10.66,8.08-22.07,8.26Zm.76-39.47h-.39c-7.62,0-25.35,1.92-25.22,18a21.33,21.33,0,0,0,4.49,12.86c2,2.65,10.75,7.48,20.37,7.48h.47c10.86-.17,19.25-5.24,21.14-7.79a21.32,21.32,0,0,0,4.27-12.93h0C128.8,13.11,111.63,11.3,103.8,11.3Z" transform="translate(-28.72 -2.07)"/><g class="cls-152"><ellipse class="cls-140" cx="121.07" cy="27.21" rx="4.44" ry="3.35" transform="translate(42.03 138.57) rotate(-78.74)"/></g><g class="cls-152"><ellipse class="cls-140" cx="117.04" cy="36.03" rx="2.05" ry="1.81" transform="translate(8.69 126.99) rotate(-66.55)"/></g><g class="cls-145"><path class="cls-153" d="M124.37,16.83a15.73,15.73,0,0,1,5.15,12.08,21.92,21.92,0,0,1-4.38,13.26C123,45,114.33,50,103.53,50.2A33.57,33.57,0,0,1,92.8,48.53c13.27-.49,23.87-6.64,26.48-10.17a27.71,27.71,0,0,0,5.57-16.83A24.21,24.21,0,0,0,124.37,16.83Z" transform="translate(-28.72 -2.07)"/></g><path class="cls-142" d="M80.24,18.8,78.7,17.63l.72.55-.77-.49C83.23,11.1,92.2,7.27,103.23,7.19s20,3.48,24.75,9.77a.92.92,0,0,1,0,1.19,1,1,0,0,1-1.39.11l-.16-.17c-4.38-5.8-12.82-9.09-23.14-9s-18.74,3.6-23,9.66Zm-.77-.58Z" transform="translate(-28.72 -2.07)"/><g class="cls-152"><path class="cls-140" d="M83.5,37s-4.3-12.77,2.85-17.93,17.5-5.22,17.26-4.58c0,0-11.43,2.75-15.84,11.47A48.85,48.85,0,0,0,83.5,37Z" transform="translate(-28.72 -2.07)"/></g><path class="cls-140" d="M120,64.83l.71,5.23.55,4.07a2.14,2.14,0,0,1-1.76,2.36c-.73.14-1.64.31-2.69.49A85.88,85.88,0,0,1,102,78.21a2.18,2.18,0,0,1-2.18-2.08l-.28-10.81a2.16,2.16,0,0,1,2.27-2.18c3.83.1,11.48.22,15.74-.16A2.19,2.19,0,0,1,120,64.83Z" transform="translate(-28.72 -2.07)"/><path class="cls-140" d="M101.67,63.14l-4.48.46a1.84,1.84,0,0,0-1.69,1.86l.35,10.72a1.83,1.83,0,0,0,1.76,1.75l4.14.25" transform="translate(-28.72 -2.07)"/><g class="cls-144"><path class="cls-142" d="M101.67,63.14l-4.48.46a1.84,1.84,0,0,0-1.69,1.86l.35,10.72a1.83,1.83,0,0,0,1.76,1.75l4.14.25" transform="translate(-28.72 -2.07)"/></g><path class="cls-142" d="M102.94,79.05H102a3,3,0,0,1-3-2.89L98.7,65.34a2.86,2.86,0,0,1,.9-2.17,3.17,3.17,0,0,1,2.26-.87c4,.1,11.47.22,15.64-.15a3.05,3.05,0,0,1,3.34,2.57l1.25,9.3a3,3,0,0,1-2.44,3.29A91.65,91.65,0,0,1,102.94,79.05ZM101.78,64a1.38,1.38,0,0,0-1,.37,1.28,1.28,0,0,0-.39,1l.28,10.81A1.31,1.31,0,0,0,102,77.37a88.29,88.29,0,0,0,17.26-1.7,1.3,1.3,0,0,0,1.07-1.43l-1.26-9.31a1.33,1.33,0,0,0-1.45-1.12c-4.26.38-11.75.27-15.84.17h0Z" transform="translate(-28.72 -2.07)"/><path class="cls-142" d="M101.75,79h0l-4.14-.25A2.7,2.7,0,0,1,95,76.21l-.34-10.73a2.71,2.71,0,0,1,2.47-2.71l4.48-.46a.86.86,0,0,1,1,.74.83.83,0,0,1-.77.92l-4.48.46a1,1,0,0,0-.91,1l.35,10.73a1,1,0,0,0,1,.94l4.14.25a.84.84,0,0,1,.81.89A.86.86,0,0,1,101.75,79Z" transform="translate(-28.72 -2.07)"/><path class="cls-142" d="M111.2,78.65a.85.85,0,0,1-.87-.79L110,72.39l-2.89-1.87a.85.85,0,0,1-.38-.64l-.47-6.59a.86.86,0,0,1,.81-.9.87.87,0,0,1,.93.78l.44,6.19,2.89,1.87a.85.85,0,0,1,.39.65l.36,5.89a.86.86,0,0,1-.82.88Z" transform="translate(-28.72 -2.07)"/><path class="cls-154" d="M119.32,69.83c0,.33-.16,3-.16,3l-2,.2a2.82,2.82,0,0,1-2.78-2.76,2.76,2.76,0,0,1,2.13-3.26l2-.19S119.26,69.29,119.32,69.83Z" transform="translate(-28.72 -2.07)"/><path class="cls-140" d="M119.32,69.83c0,.33-.16,3-.16,3h-.06c.05-.79.1-1.72.08-1.91-.06-.54-.81-3-.81-3l-2,.2a2.45,2.45,0,0,0-2,1.84,2.71,2.71,0,0,1,2.15-3l2-.19S119.26,69.29,119.32,69.83Z" transform="translate(-28.72 -2.07)"/><path class="cls-142" d="M117,73.8a3.61,3.61,0,0,1-3.32-3.41,3.47,3.47,0,0,1,2.79-4l1.38-.14a1.46,1.46,0,0,1,1.55,1,19.41,19.41,0,0,1,.67,2.53h0a23,23,0,0,1-.12,2.6,1.42,1.42,0,0,1-1.3,1.3l-1.37.14Zm1-6.17-1.35.14a2.08,2.08,0,0,0-1.47,2.47c.13,1.25,1,2.22,2,2.13l1.34-.13c.11-1.51.13-2.21.12-2.35A21.51,21.51,0,0,0,118,67.63Z" transform="translate(-28.72 -2.07)"/><ellipse class="cls-155" cx="118.83" cy="69.87" rx="2.47" ry="3.03" transform="translate(-36.49 13.26) rotate(-7.15)"/><path class="cls-140" d="M121.29,69.63a3.92,3.92,0,0,1,0,.59,2.69,2.69,0,0,0-2.67-2.17,2.63,2.63,0,0,0-2.15,2.66,3.84,3.84,0,0,1-.11-.59,2.75,2.75,0,0,1,2.13-3.25A2.82,2.82,0,0,1,121.29,69.63Z" transform="translate(-28.72 -2.07)"/><path class="cls-142" d="M119,73.6a3,3,0,0,1-2.15-.93,4.17,4.17,0,0,1-1.16-2.48,4.07,4.07,0,0,1,.6-2.65,2.92,2.92,0,0,1,4.63-.46A4.15,4.15,0,0,1,122,69.56h0a4.07,4.07,0,0,1-.6,2.65,3,3,0,0,1-2.19,1.38Zm-.24-6h-.12a1.46,1.46,0,0,0-1.09.73,2.64,2.64,0,0,0-.38,1.75,2.71,2.71,0,0,0,.74,1.63,1.56,1.56,0,0,0,1.22.5,1.49,1.49,0,0,0,1.09-.73,2.64,2.64,0,0,0,.38-1.75h0a2.69,2.69,0,0,0-.74-1.63A1.57,1.57,0,0,0,118.71,67.57Z" transform="translate(-28.72 -2.07)"/><path class="cls-140" d="M77.36,66.92s5.89,2.56,19.9,2.1c0,0,2.57,2.36,0,4.31s-17,3.07-20.87-.93C74,69.87,77.36,66.92,77.36,66.92Z" transform="translate(-28.72 -2.07)"/><g class="cls-144"><path class="cls-142" d="M97.26,73.33c-2.56,2-17,3.07-20.87-.93a2.9,2.9,0,0,1-.5-3.53,3.19,3.19,0,0,0,.5.66c3.86,4,18.31,2.88,20.87.93a3.57,3.57,0,0,0,.65-.63A2.4,2.4,0,0,1,97.26,73.33Z" transform="translate(-28.72 -2.07)"/></g><path class="cls-142" d="M87.09,75.93c-3.27,0-8.87-.4-11.34-3a3.67,3.67,0,0,1-1.11-2.76,6.4,6.4,0,0,1,2.14-3.91l.42-.37.52.23c.09,0,6,2.47,19.51,2h.37l.27.24a4.36,4.36,0,0,1,1.4,3.08A3.28,3.28,0,0,1,97.8,74c-1.72,1.31-6.64,1.93-10.48,2Zm-9.5-8a4.23,4.23,0,0,0-1.21,2.39A2.07,2.07,0,0,0,77,71.84c3.54,3.66,17.53,2.48,19.69.83a1.69,1.69,0,0,0,.81-1.26,2.46,2.46,0,0,0-.64-1.54C85.38,70.2,79.38,68.52,77.59,67.9Z" transform="translate(-28.72 -2.07)"/><g class="cls-144"><path class="cls-142" d="M127.8,86.77c-2.11,2.45-8.88,4.81-12.52,2.62-3-1.83-3.13-4.45-5.29-6A9.12,9.12,0,0,0,108.9,83a81.34,81.34,0,0,1,18.7-3.45C130,82.36,129.54,84.75,127.8,86.77Z" transform="translate(-28.72 -2.07)"/></g><path class="cls-140" d="M98.4,55.83C106,65,118.62,70.56,126.14,77.07c4.12,3.57,3.47,5.29,1.42,7.68s-7.06,4.8-10.7,2.61c-3-1.83-3.23-3.56-5.39-5.07-.85-.59-14.53-4.08-22.12-15.43" transform="translate(-28.72 -2.07)"/><g class="cls-144"><path class="cls-142" d="M127.56,84.75c-2.11,2.44-7.06,4.8-10.7,2.61-3-1.82-3.23-3.56-5.39-5.07-.85-.59-14.53-4.08-22.12-15.44l.16-.18c8.46,8.54,17.29,9,23.15,13.38A44.43,44.43,0,0,0,118,84c3.64,2.19,8.59-.17,10.7-2.62l.39-.46C129.43,82.26,128.72,83.4,127.56,84.75Z" transform="translate(-28.72 -2.07)"/></g><path class="cls-142" d="M98.66,55.63a56,56,0,0,1,4.39,3.54c1.4,1.21,2.84,2.39,4.3,3.56s3,2.24,4.58,3.29,3.16,2.09,4.75,3.13,3.2,2.08,4.78,3.18c.39.26.78.54,1.17.82l1.18.84c.76.59,1.54,1.16,2.28,1.79a21.3,21.3,0,0,1,2.18,2l.51.58c.15.21.32.41.47.63l.21.34.11.18c0,.06.06.12.1.19l.18.38c.05.13.09.28.14.41a3.7,3.7,0,0,1,.09,1.81,5,5,0,0,1-.65,1.59,10.94,10.94,0,0,1-.92,1.23c-.15.19-.33.39-.51.58a7.18,7.18,0,0,1-.57.54A11.7,11.7,0,0,1,124.86,88a11.24,11.24,0,0,1-3,1,8.5,8.5,0,0,1-3.26,0l-.4-.09a2.75,2.75,0,0,1-.41-.11c-.26-.1-.53-.18-.78-.3s-.51-.25-.74-.39-.44-.27-.65-.42a11.19,11.19,0,0,1-1.22-1,12.16,12.16,0,0,1-1.06-1.1,22.6,22.6,0,0,0-1.78-2l-.23-.2a2.43,2.43,0,0,0-.25-.2l-.12-.09-.06,0,0,0h0l0,0-.13,0-1.32-.5c-.9-.33-1.81-.69-2.71-1.06a47.41,47.41,0,0,1-10.15-5.73c-.78-.58-1.53-1.2-2.27-1.83s-1.47-1.28-2.15-2a12.54,12.54,0,0,1-1-1.07c-.16-.19-.31-.37-.45-.57s-.29-.39-.42-.59a10.49,10.49,0,0,1-.72-1.26A7.62,7.62,0,0,1,89.07,67a.33.33,0,0,1,.27-.4.41.41,0,0,1,.27,0h0a10.58,10.58,0,0,1,1.14.91c.36.31.68.64,1,1l.48.49c.15.17.32.33.47.5s.32.33.47.5.32.33.47.5c.61.67,1.26,1.32,1.94,1.94s1.41,1.19,2.16,1.74a45.22,45.22,0,0,0,9.72,5.48c.87.37,1.75.71,2.63,1l1.38.51.2.09.11,0,.18.09.07,0,0,0,.08.06.16.12c.22.16.42.34.62.51a22.7,22.7,0,0,1,1.93,2.21,9.45,9.45,0,0,0,1.91,1.72c.18.13.37.24.55.36l.53.28c.18.09.37.13.56.21a1.38,1.38,0,0,0,.29.08l.29.06a6.48,6.48,0,0,0,2.48,0,10.09,10.09,0,0,0,4.59-2.3c.16-.14.32-.28.46-.43s.28-.3.42-.48a8.41,8.41,0,0,0,.76-1,2.85,2.85,0,0,0,.41-1,1.78,1.78,0,0,0,0-.94,5.31,5.31,0,0,0-1.29-2,22.06,22.06,0,0,0-2-1.83c-.71-.6-1.46-1.15-2.2-1.72l-1.14-.82-1.16-.81c-1.54-1.07-3.14-2.1-4.73-3.14s-3.19-2.07-4.77-3.15-3.15-2.19-4.71-3.3a38.22,38.22,0,0,1-4.45-3.67A16,16,0,0,1,98.15,56a.32.32,0,0,1,.16-.44.37.37,0,0,1,.34,0Z" transform="translate(-28.72 -2.07)"/><path class="cls-142" d="M99,77.1a.75.75,0,0,1-.21,0,.84.84,0,0,1-.64-1c.12-.47,3-11.37,10.89-11.37h.13a.84.84,0,1,1,0,1.68h-.09c-6.57,0-9.18,10-9.21,10.09A.85.85,0,0,1,99,77.1Z" transform="translate(-28.72 -2.07)"/><path class="cls-142" d="M131.25,59.83a.91.91,0,0,1-.42-.11c-4.39-2.37-4.71-13.76-4.74-15a.85.85,0,0,1,.86-.85h0a.84.84,0,0,1,.87.82c.06,3.24.86,12,3.85,13.62A.82.82,0,0,1,132,59.4.88.88,0,0,1,131.25,59.83Z" transform="translate(-28.72 -2.07)"/><path class="cls-142" d="M138.47,38.45s0,.14,0,.22l0,.26c0,.17,0,.35,0,.52,0,.35.07.7.12,1.06s.13.7.2,1.07.16.74.21,1.19A3,3,0,0,1,138,42a3.39,3.39,0,0,1-.38-.53,5.07,5.07,0,0,1-.29-.57,5.34,5.34,0,0,1-.39-1.23c0-.21-.06-.42-.07-.64a1.71,1.71,0,0,1,0-.32,2.49,2.49,0,0,1,0-.36.78.78,0,0,1,1.53,0Z" transform="translate(-28.72 -2.07)"/></svg>