<svg id="Слой_1" data-name="Слой 1" xmlns="http://www.w3.org/2000/svg" viewBox="0 0 21.8 22">
    <defs>
        <style>.cls-1{fill:#4DB5FF;fill-rule:evenodd;}</style>
    </defs>
    <title>education</title>
    <path class="cls-1"
          d="M11.59,15.11a.33.33,0,1,0,.11.65c.28,0,1.39-.1,1.52.35a.39.39,0,0,0,.44.25A.36.36,0,0,0,13.9,16c-.22-.74-1.13-.88-1.74-.88-.29,0-.51,0-.57,0Zm-5.71.33a.31.31,0,0,0,0,.45.36.36,0,0,0,.48,0s.91-.88.74-3.14c.08-.49.48-1.78,1.22-1.86a.32.32,0,0,0,.3-.37.34.34,0,0,0-.35-.28h0c-1.44.18-1.79,2.36-1.81,2.45v.08a3.66,3.66,0,0,1-.54,2.67ZM8.49,8.67A.36.36,0,0,0,9,8.57c.68-1,2-2.59,2.93-2.41a.35.35,0,0,0,.41-.24.33.33,0,0,0-.26-.39,1.52,1.52,0,0,0-.29,0c-1.57,0-3.18,2.43-3.38,2.71a.34.34,0,0,0,.11.45Zm2.71-.29a.31.31,0,0,0-.29.37.36.36,0,0,0,.4.27,2.85,2.85,0,0,0,2.2-1.9.33.33,0,0,0-.26-.39h-.09a.33.33,0,0,0-.33.23A2.11,2.11,0,0,1,11.2,8.38ZM12,17.07l-.13,0a.29.29,0,0,0-.18.41c.9,2.06.07,5.1.07,5.12A.3.3,0,0,0,12,23a.33.33,0,0,0,.41-.24c.05-.12.92-3.26-.08-5.53a.38.38,0,0,0-.33-.18ZM10.54,14.3a.71.71,0,0,1,.5.12.33.33,0,0,0,.48-.08.31.31,0,0,0-.08-.45,1.53,1.53,0,0,0-.79-.25.81.81,0,0,0-.3,0,1.78,1.78,0,0,0-1,1c-.48,1-.91,1-1,1a.36.36,0,0,0-.41.23.31.31,0,0,0,.22.4c.1,0,1,.27,1.78-1.38.07-.14.29-.51.59-.59ZM8.43,9.47c.63,0,1.44.18,1.68.71a1.86,1.86,0,0,1-.48,1.67A5,5,0,0,0,8,14.91a.34.34,0,0,0,.35.32.32.32,0,0,0,.35-.3,4.51,4.51,0,0,1,1.44-2.65,3.07,3.07,0,0,0,.39-.57.39.39,0,0,0,.2-.06A2,2,0,0,1,12,11.2a.63.63,0,0,1,.44.28.34.34,0,0,0,.48.1.32.32,0,0,0,.1-.44,1.26,1.26,0,0,0-.91-.57.9.9,0,0,0-.22,0,2.28,2.28,0,0,0-1,.26,1.59,1.59,0,0,0-.11-.88c-.31-.67-1.07-1.06-2.29-1.1h0a.32.32,0,1,0,0,.64ZM11.48,23.7s-.61-.31-.7-.84.22-1,.85-1.49a.3.3,0,0,0,0-.47.36.36,0,0,0-.26-.1.46.46,0,0,0-.21.08c-.16.15-.29.27-.4.39a.35.35,0,0,0-.06-.27,2.57,2.57,0,0,1-.37-2.93l0-.08a3.88,3.88,0,0,0,.06-2.25.33.33,0,0,0-.3-.18l-.15,0A.33.33,0,0,0,9.8,16a3,3,0,0,1-.09,1.77,3.25,3.25,0,0,0,.46,3.63.36.36,0,0,0,.42.08,1.91,1.91,0,0,0-.51,1.45,2,2,0,0,0,1.1,1.33.33.33,0,0,0,.45-.15.29.29,0,0,0-.15-.42ZM4.83,15.32c-.52,3,.79,4,1.24,4.24a3,3,0,0,0,1.4,3,2,2,0,0,0,.33,1,4.28,4.28,0,0,0,2.63,1.61,2.51,2.51,0,0,0,1.73.82h0a3.82,3.82,0,0,0,2.44-1.51V6.12a3.87,3.87,0,0,0-2.16-2A2.66,2.66,0,0,0,11.81,4a4.06,4.06,0,0,0-2.23.77l-.06.09A9.36,9.36,0,0,1,7,7.53C4.72,9.16,4.76,10.91,4.81,11.3a2.51,2.51,0,0,0-.48.9,4.32,4.32,0,0,0,.5,3.12ZM7.45,8.06a10.09,10.09,0,0,0,2.61-2.82,3,3,0,0,1,2.23-.53c.74.19,1.31.88,1.74,2V24.1a2.74,2.74,0,0,1-1.85,1.25h0c-.61,0-1.22-.45-1.83-1.33a.37.37,0,0,0-.46-.1.31.31,0,0,0-.16.35,2.81,2.81,0,0,1-1.3-1,1.87,1.87,0,0,1-.11-1.72.31.31,0,0,0-.24-.4l-.09,0a.34.34,0,0,0-.33.22c-.06.16-.09.33-.13.47-.5-.43-1.28-1.53-.26-3.91a.33.33,0,0,0-.2-.43l-.13,0a.35.35,0,0,0-.32.2,9.34,9.34,0,0,0-.4,1.2c-.45-.38-1.2-1.44-.54-4.07a.33.33,0,0,0-.26-.39l-.09,0-.15,0a3.15,3.15,0,0,1-.16-2A2.3,2.3,0,0,1,6.2,11a.27.27,0,0,0,.13-.42A.33.33,0,0,0,6,10.4l-.15,0c-.13.06-.24.15-.35.21A4.16,4.16,0,0,1,7.45,8.06Zm11.16,7a.35.35,0,0,1,.31.37.37.37,0,0,1-.4.28c-.3,0-1.41-.1-1.55.35A.34.34,0,0,1,16.3,16c.22-.74,1.16-.88,1.77-.88.26,0,.47,0,.54,0Zm5.74.33a.29.29,0,0,1,0,.45.37.37,0,0,1-.48,0S23,15,23.1,12.75c-.09-.49-.46-1.78-1.22-1.86a.32.32,0,0,1-.3-.37.34.34,0,0,1,.35-.28h0c1.44.18,1.81,2.36,1.83,2.45v.08c-.15,1.93.52,2.65.55,2.67ZM21.71,8.67a.37.37,0,0,1-.48-.1c-.66-1-2-2.59-2.9-2.41a.33.33,0,0,1-.42-.24.32.32,0,0,1,.26-.39,1.32,1.32,0,0,1,.29,0c1.55,0,3.18,2.43,3.36,2.71a.3.3,0,0,1-.11.45ZM19,8.38a.34.34,0,0,1,.29.37.36.36,0,0,1-.39.27,2.85,2.85,0,0,1-2.21-1.9A.32.32,0,0,1,17,6.73H17a.31.31,0,0,1,.33.23A2.14,2.14,0,0,0,19,8.38Zm-.78,8.69.13,0a.32.32,0,0,1,.2.41c-.92,2.06-.09,5.1-.07,5.12a.33.33,0,0,1-.26.4.34.34,0,0,1-.41-.24c0-.12-.9-3.26.1-5.53a.32.32,0,0,1,.31-.18Zm1.44-2.77a.76.76,0,0,0-.52.12.33.33,0,0,1-.48-.08.31.31,0,0,1,.08-.45,1.59,1.59,0,0,1,.79-.25.93.93,0,0,1,.32,0,1.69,1.69,0,0,1,1,1c.48,1,.91,1,1,1a.34.34,0,0,1,.41.23.31.31,0,0,1-.22.4c-.1,0-1,.27-1.78-1.38-.07-.14-.29-.51-.57-.59Zm2.11-4.83c-.65,0-1.46.18-1.68.71a1.8,1.8,0,0,0,.46,1.67,5,5,0,0,1,1.62,3.06.3.3,0,0,1-.33.32.31.31,0,0,1-.35-.3,4.66,4.66,0,0,0-1.44-2.65,2.33,2.33,0,0,1-.39-.57.4.4,0,0,1-.22-.06,1.93,1.93,0,0,0-1.22-.45.67.67,0,0,0-.44.28.3.3,0,0,1-.45.1.29.29,0,0,1-.11-.44,1.24,1.24,0,0,1,.91-.57.75.75,0,0,1,.22,0,2.28,2.28,0,0,1,1,.26,1.57,1.57,0,0,1,.09-.88c.31-.67,1.07-1.06,2.29-1.1h0a.32.32,0,1,1,0,.64ZM18.72,23.7s.63-.31.72-.84-.24-1-.87-1.49a.33.33,0,0,1,0-.47.45.45,0,0,1,.27-.1.53.53,0,0,1,.24.08c.15.15.26.27.39.39A.28.28,0,0,1,19.5,21a2.66,2.66,0,0,0,.37-2.93l0-.08a4.06,4.06,0,0,1-.06-2.25.39.39,0,0,1,.32-.18l.13,0a.31.31,0,0,1,.18.43,3.27,3.27,0,0,0,.09,1.77A3.21,3.21,0,0,1,20,21.41a.34.34,0,0,1-.42.08,1.79,1.79,0,0,1,.5,1.45,2,2,0,0,1-1.06,1.33.36.36,0,0,1-.48-.15.3.3,0,0,1,.15-.42Zm6.65-8.38c.52,3-.79,4-1.24,4.24a3,3,0,0,1-1.38,3,2.27,2.27,0,0,1-.35,1,4.25,4.25,0,0,1-2.61,1.61A2.55,2.55,0,0,1,18,26h0a3.92,3.92,0,0,1-2.46-1.51V6.12a3.84,3.84,0,0,1,2.18-2A2.61,2.61,0,0,1,18.41,4a4,4,0,0,1,2.21.77l.08.09a9.31,9.31,0,0,0,2.47,2.67c2.31,1.63,2.27,3.38,2.22,3.77a2.24,2.24,0,0,1,.48.9,4.32,4.32,0,0,1-.5,3.12ZM22.75,8.06a10.39,10.39,0,0,1-2.61-2.82,2.91,2.91,0,0,0-2.21-.53,2.84,2.84,0,0,0-1.74,2V24.1A2.65,2.65,0,0,0,18,25.35h0A2.42,2.42,0,0,0,19.87,24a.41.41,0,0,1,.49-.1.34.34,0,0,1,.15.35,3,3,0,0,0,1.31-1,2,2,0,0,0,.11-1.72.3.3,0,0,1,.21-.4l.11,0a.35.35,0,0,1,.33.22c0,.16.09.33.11.47.52-.43,1.28-1.53.28-3.91a.32.32,0,0,1,.2-.43l.13,0a.32.32,0,0,1,.3.2,5.61,5.61,0,0,1,.4,1.2c.45-.38,1.2-1.44.56-4.07a.32.32,0,0,1,.24-.39l.09,0,.15,0a3.28,3.28,0,0,0,.18-2A2.41,2.41,0,0,0,24,11a.3.3,0,0,1-.13-.42.33.33,0,0,1,.3-.17l.18,0c.1.06.21.15.32.21a4.16,4.16,0,0,0-1.92-2.59Z"
          transform="translate(-4.2 -4)"/>
</svg>