<svg xmlns="http://www.w3.org/2000/svg" width="800px" height="800px" viewBox="0 0 50.8 50.8" xml:space="preserve"><path d="M29.628 44.95v-7.12c-.092-2.02.599-3.64 2.12-4.831L33.605 7.57l-8.218-1.78m-4.242 39.16v-7.12c.091-2.02-.6-3.64-2.121-4.831L17.168 7.57l8.218-1.78" style="fill:none;stroke:white;stroke-width:3.17469;stroke-linecap:round;stroke-linejoin:round;stroke-dasharray:none;stroke-opacity:1"/>
    <path d="M17.198 7.673 25.4 5.82l8.202 1.852m-12.965 28.84h8.996"
          style="fill:white;stroke:white;stroke-width:3.175;stroke-linecap:butt;stroke-linejoin:round;stroke-dasharray:none;stroke-opacity:1"/>
    <path d="m37.042 11.906-.265 3.44c3.084.118 3.18-3.203.265-3.44zm-.662 7.541-.264 3.44c3.084.118 3.18-3.203.264-3.44zm-.529 7.408-.265 3.44c3.085.118 3.18-3.203.265-3.44zM13.758 11.906l.265 3.44c-3.084.118-3.18-3.203-.265-3.44zm.662 7.541.264 3.44c-3.084.118-3.18-3.203-.264-3.44zm.529 7.408.265 3.44c-3.085.118-3.18-3.203-.265-3.44z"
          style="fill:white;fill-opacity:1;stroke:white;stroke-width:1.05833;stroke-linecap:butt;stroke-linejoin:round;stroke-dasharray:none;stroke-opacity:1"/></svg>