<svg id="Слой_1" data-name="Слой 1" xmlns="http://www.w3.org/2000/svg" viewBox="0 0 30.04 27.9"><defs><style>.cls-1{fill:#4db5ff;}</style></defs><title>experience</title><path class="cls-1" d="M5.23,16.64v6.77a.14.14,0,0,0,0,.18h0l8.9,4.11V17L10,18.44a1,1,0,0,1-.63,0Zm10-11.41h1.25V6.85H15.27V5.29h0Zm3.62-1H20.1a.06.06,0,0,1,0,.06V5.82H18.81V4.29a.06.06,0,0,1,.05-.06ZM15.57,7.76h.62v.75h-.62V7.76Zm-1.44,4.49a.5.5,0,0,1,.44.53.45.45,0,1,1-.9,0h0a.5.5,0,0,1,.46-.53Zm-.39-6a.49.49,0,0,1,.46.51v0a.45.45,0,1,1-.9,0h0a.5.5,0,0,1,.44-.53ZM9.61.85h1.28V2.41H9.61V.85Zm8.32.92L19.07.41a.08.08,0,0,1,.09,0L20.3,1.77a.11.11,0,0,1,0,.11L19.16,3.23a.05.05,0,0,1-.08,0h0L17.93,1.88A.11.11,0,0,1,17.93,1.77ZM16,1.82a.52.52,0,0,1,.47.53A.51.51,0,0,1,16,2.9h0a.5.5,0,0,1-.44-.55h0A.5.5,0,0,1,16,1.82ZM13.32.1a.52.52,0,0,1,.46.56.45.45,0,1,1-.9,0h0A.52.52,0,0,1,13.32.1ZM10.42,6l1.14-1.35a0,0,0,0,1,.08,0h0L12.79,6a.11.11,0,0,1,0,.11L11.65,7.48a.07.07,0,0,1-.09,0L10.42,6.09a.11.11,0,0,1,0-.11Zm6.75,3.78,1.16-1.36h.07l1.16,1.36a.11.11,0,0,1,0,.11L18.4,11.23h-.07L17.17,9.86a.07.07,0,0,1,0-.1h0Zm-1.44,3h.63v.75h-.63v-.75ZM12.48,8.86h1.26V10.4H12.48V8.86Zm3,1a.49.49,0,0,1,.45.53.51.51,0,0,1-.45.56h0a.5.5,0,0,1-.43-.56h0A.49.49,0,0,1,15.48,9.83ZM12.85,3.52h.66V4.3h-.66V3.54h0ZM19,6.23a.5.5,0,0,1,.44.53h0a.5.5,0,0,1-.39.58.47.47,0,0,1-.52-.43.38.38,0,0,1,0-.15A.5.5,0,0,1,19,6.23ZM5.23,11.17,11.6,8.35A.76.76,0,0,0,12,8.2a1,1,0,0,0-.28.7v1.5a.82.82,0,0,0,.75.89h1.27a.68.68,0,0,0,.65-.44,1.17,1.17,0,0,0,1.08.89,1.27,1.27,0,0,0,1.16-1.34h.05l1.14,1.4a.7.7,0,0,0,1.05,0l0,0L20,10.4a1,1,0,0,0,0-1.27L19.89,9l4.84,2.2c.05,0,.05.06,0,.09L15,15.9a.12.12,0,0,1-.16,0l-9.6-4.6s0,0,0-.08Zm6.88-3.08ZM12.3,8l.63-.28A.72.72,0,0,0,13.2,8h-.9Zm4.64-.33.72.33-.84,1a.87.87,0,0,0,.12-.45Zm-2.46,2A1.34,1.34,0,0,1,15,9.09a.92.92,0,0,1-.16-.56V7.79a.81.81,0,0,1,0-.22.23.23,0,0,1-.11-.11,1.34,1.34,0,0,1-.68.63.93.93,0,0,1,.4.81Zm2,0a1.34,1.34,0,0,1,.14-.38.69.69,0,0,1-.3.14A1.25,1.25,0,0,1,16.48,9.64Zm-1.3,2.56a.69.69,0,0,1,.56-.3h.63a.81.81,0,0,1,.72.88h0v.75a.83.83,0,0,1-.72.87h-.63a.76.76,0,0,1-.74-.7,1.09,1.09,0,0,1-.88.51A1.37,1.37,0,0,1,13,12.69a1.33,1.33,0,0,1,1.15-1.26,1.15,1.15,0,0,1,1,.8ZM17.26,6l.86-.33v.2a1.41,1.41,0,0,0-.3.91,1.82,1.82,0,0,0,0,.33l-.58-.24V6Zm3.62-1L30,8.9c.05,0,.05,0,0,.08L25.58,10.9a.83.83,0,0,0-.49-.58L19.67,7.9a1.51,1.51,0,0,0,.51-1.1h0A.87.87,0,0,0,21,5.9Zm4.61,6.72,3.25,2.06v.08l-9.37,4.46h-.14L16,16.39l9.08-4.27a.86.86,0,0,0,.42-.42ZM13.57,16.25l-3.82,1.3H9.61L0,13.45v-.09L4.46,11.5a1,1,0,0,0,.49.62Zm-2.8-8.54-.86-1a1.2,1.2,0,0,1,0-1.31l.67-.8-.21-.11a.22.22,0,0,0-.16,0L.48,8.57v.07l4,2.2A.86.86,0,0,1,5,10.28Zm13.91,9.07v6.6a.21.21,0,0,1-.07.13L15,28h-.09V16.8h0l4,2.31a.91.91,0,0,0,.79,0Z" transform="translate(0 -0.1)"/></svg>