<?xml version="1.0" encoding="utf-8"?>
<!-- Generator: Adobe Illustrator 22.1.0, SVG Export Plug-In . SVG Version: 6.00 Build 0)  -->
<svg version="1.1" id="Слой_1" xmlns="http://www.w3.org/2000/svg" xmlns:xlink="http://www.w3.org/1999/xlink" x="0px" y="0px"
	 viewBox="0 0 32 32" style="enable-background:new 0 0 32 32;" xml:space="preserve">
<style type="text/css">
	.st0{fill:none;stroke:#000000;stroke-miterlimit:1;}
</style>
<path class="st0" d="M26.5,31.5h-21c-2.8,0-5-2.3-5-5v-21c0-2.8,2.3-5,5-5h21c2.8,0,5,2.3,5,5v21C31.5,29.3,29.3,31.5,26.5,31.5z"/>
<path d="M11.4,28.2v-2.7c0,0-0.7,0.2-1.4,0.2c-2,0-2.9-2-3.2-3.2c-0.2-0.7-0.5-1.2-0.9-1.7c-0.5-0.2-0.7-0.2-0.7-0.2
	c0-0.2,0.5-0.2,0.7-0.2c0.9,0,1.6,1.2,2,1.7c0.7,1.2,1.6,1.7,2,1.7c0.7,0,1.1-0.2,1.4-0.2c0.2-1.2,0.7-2.2,1.6-3
	c-3.6-1-6.1-3.2-6.1-6.9c0-1.7,0.7-3.7,1.8-4.9c-0.2-0.2-0.5-1-0.5-2.2c0-0.7,0-1.7,0.5-2.7c0,0,2,0,4.3,2.2
	c0.7-0.2,1.8-0.5,2.9-0.5s2,0.2,2.9,0.5c2-2.2,4.3-2.2,4.3-2.2c0.2,1,0.2,2,0.2,2.7c0,1.2-0.2,2-0.2,2.2c0.9,1.5,1.8,3,1.8,4.9
	c0,3.7-2.5,5.7-6.1,6.7c0.9,0.7,1.6,2.2,1.6,3.7v4.2C15.5,30,11.4,28.2,11.4,28.2z"/>
</svg>
