<?xml version="1.0" encoding="utf-8"?>
<!-- Generator: Adobe Illustrator 22.1.0, SVG Export Plug-In . SVG Version: 6.00 Build 0)  -->
<svg version="1.1" id="Слой_1" xmlns="http://www.w3.org/2000/svg" xmlns:xlink="http://www.w3.org/1999/xlink" x="0px" y="0px"
	 viewBox="0 0 32 32" style="enable-background:new 0 0 32 32;" xml:space="preserve">
<style type="text/css">
	.st0{fill:none;stroke:#000000;stroke-miterlimit:1;}
</style>
<path class="st0" d="M26.5,31.5h-21c-2.8,0-5-2.3-5-5v-21c0-2.8,2.3-5,5-5h21c2.8,0,5,2.3,5,5v21C31.5,29.3,29.3,31.5,26.5,31.5z"/>
<g>
	<g>
		<path d="M4,10.5c0.2-1.1,0.4-2.2,1-3.2C6.4,5,8.5,4.2,11,4.1C14.3,4,17.7,4,21,4.1c2.3,0.1,4.3,0.8,5.7,2.8
			c0.9,1.3,1.2,2.7,1.2,4.3c0,3.2,0.1,6.5,0,9.7c-0.1,2.6-1,4.8-3.4,6.2c-1.1,0.6-2.4,0.9-3.6,0.9c-3.3,0-6.6,0.1-9.9,0
			c-2.5-0.1-4.6-0.9-6-3.2c-0.6-1-0.8-2.1-1-3.2C4,17.9,4,14.2,4,10.5z M16,6.4c-1.6,0-3.3,0-4.9,0C8.5,6.5,6.9,7.7,6.5,9.9
			c-0.1,0.5-0.2,1-0.2,1.4c0,3.1-0.1,6.3,0,9.4c0.1,3.1,1.6,4.8,4.6,4.9c3.4,0.1,6.8,0.1,10.1,0c2.5-0.1,4-1.3,4.4-3.5
			c0.1-0.4,0.2-0.8,0.2-1.2c0-3.6,0.2-7.2-0.1-10.7c-0.2-2.1-1.6-3.5-3.7-3.8C19.9,6.2,18,6.4,16,6.4z"/>
	</g>
	<g>
		<path d="M22.2,16.1c0,3.4-2.8,6.1-6.2,6.2c-3.4,0-6.3-2.8-6.2-6.3c0-3.4,2.9-6.2,6.3-6.2C19.5,9.9,22.2,12.6,22.2,16.1z M19.9,16
			c0-2.1-1.7-3.9-3.9-3.9c-2.1,0-3.9,1.8-3.9,3.9c0,2.1,1.7,3.9,3.9,3.9C18.1,19.9,19.9,18.2,19.9,16z"/>
	</g>
	<g>
		<path d="M22.4,8.2c0.8,0,1.5,0.7,1.5,1.5c0,0.8-0.7,1.5-1.5,1.5c-0.8,0-1.5-0.7-1.5-1.5C20.8,8.9,21.5,8.2,22.4,8.2z"/>
	</g>
</g>
</svg>
