<svg id="Слой_1" data-name="Слой 1" xmlns="http://www.w3.org/2000/svg" viewBox="0 0 28.54 26.92">
    <defs>
        <style>.cls-1{fill:#4DB5FF;fill-rule:evenodd;}</style>
    </defs>
    <title>project</title>
    <path class="cls-1"
          d="M22.32,13.43l-10.14,9.5-.42-4.52,0-3.57-.06-3.06,0,0,.26-9,3.26,2.87-.79.2.87.89c2.23,2.38,4.59,4.52,7,6.71ZM7.87,27.18l-2.1-2.52.89-.92ZM26.21,4.57,29,7.09,25.16,8ZM10.87,11.08,6.61,7.38l-5.2.54L.46,7,6,7.12.62,2H11.16Zm0,1,0,2.74,0,2.7L2.09,8.6l4.23-.44Zm12,.8c-2.6-2.36-4.52-4.06-7-6.68L25.56,4ZM11.45,23.64l-1.34,1.07L11,28.06,9.26,25.7,9.34,29,7.27,23.1l3.2-3.33L2.62,12l2.44.68,5.91,6Z"
          transform="translate(-0.46 -2.04)"/>
</svg>