<?xml version="1.0" encoding="utf-8"?>
<!-- Generator: Adobe Illustrator 22.1.0, SVG Export Plug-In . SVG Version: 6.00 Build 0)  -->
<svg version="1.1" id="Слой_1" xmlns="http://www.w3.org/2000/svg" xmlns:xlink="http://www.w3.org/1999/xlink" x="0px" y="0px"
	 viewBox="0 0 32 32" style="enable-background:new 0 0 32 32;" xml:space="preserve">
<style type="text/css">
	.st0{fill:none;stroke:#000000;stroke-miterlimit:1;}
</style>
<path class="st0" d="M26.5,31.5h-21c-2.8,0-5-2.3-5-5v-21c0-2.8,2.3-5,5-5h21c2.8,0,5,2.3,5,5v21C31.5,29.3,29.3,31.5,26.5,31.5z"/>
<path d="M29.1,6.2c-0.3-0.3-0.8-0.3-1.2-0.1l-25,12.3c-0.5,0.2-0.8,0.7-0.8,1.2c0,0.5,0.3,0.9,0.8,1.1l3.9,1.5
	c0.5,0.2,1.1,0.1,1.6-0.2l3.6-2.3c0.4-0.2,0.8,0.2,0.5,0.5l-2.2,2c-0.4,0.3-0.5,0.7-0.5,1.2l0.6,3.6c0.1,0.4,0.4,0.7,0.8,0.8
	c0.4,0.1,0.9,0,1.3-0.2l2.4-1.9c0.1-0.1,0.3-0.1,0.4-0.1l2.8,1.1c0.3,0.1,0.6,0.1,0.9,0.1c0.1,0,0.2,0,0.3-0.1
	c0.4-0.1,0.7-0.4,0.9-0.7l9.3-18.8C29.6,6.8,29.5,6.4,29.1,6.2z"/>
</svg>
